<svg xmlns="http://www.w3.org/2000/svg" width="327.92935mm" height="470.91095mm" viewBox="0 0 327.92935 470.91095"
	version="1.1" id="cat" xml:space="preserve">
	<g id="layer1">
		<path fill="#000000" stroke-width="1"
			d="m 48.78789999999981 470.73199999999997 c -7.5261,-0.594 -13.8677,-2.035 -18.6243,-4.232 -7.1114,-3.286 -12.3586,-9.231 -14.6395,-16.59 -1.0291,-3.318 -1.2595,-8.822 -0.5491,-13.138 0.5933,-3.611 2.4652,-9.682 3.7199,-12.065 l 0.7881,-1.5 0.2371,1.669 c 0.9619,6.773 4.3352,13.474 8.9959,17.871 2.757,2.601 5.0724,4.023 8.0838,4.966 3.6767,1.151 8.009,0.697 13.2015,-1.382 7.8036,-3.125 16.5863,-11.91 21.7442,-21.749 1.6953,-3.234 4.4725,-9.75 4.2507,-9.972 -0.058,-0.06 -1.4284,1.401 -3.0383,3.25 -3.4357,3.946 -8.4371,8.793 -11.9583,11.592 -5.7252,4.549 -13.3243,8.928 -19.2569,11.098 l -2.7263,0.997 -0.6182,-1.744 c -0.7843,-2.217 -5.6005,-13.536 -5.8548,-13.764 -0.1056,-0.1 -0.1018,0.208 0,0.674 0.1094,0.465 0.4492,3.285 0.7555,6.266 0.3052,2.979 0.6738,6.066 0.8198,6.857 0.1449,0.792 0.1689,1.438 0.058,1.437 -0.3667,-0.01 -7.2967,-10.815 -10.0941,-15.746 -6.1553,-10.848 -9.2733,-19.5 -9.3568,-25.966 -0.019,-1.616 -0.1613,-2.862 -0.311,-2.77 -0.1498,0.1 -0.6393,0.892 -1.0867,1.775 -1.8038,3.56 -1.9132,8.365 -0.336,14.77 0.3821,1.551 -1.5532,-2.627 -2.6677,-5.757 -2.3932,-6.729 -3.7084,-12.177 -4.317,-17.892 -0.5337,-5.005 0.4704,-11.282 2.7388,-17.125 0.5424,-1.396 0.9187,-2.605 0.8371,-2.687 -0.086,-0.09 -1.0397,0.761 -2.1283,1.874 -3.571,3.65 -5.9076,9.675 -6.3799,16.448 -0.2793,4.007 -0.6288,3.456 -0.9964,-1.575 -0.4205,-5.733 0.8697,-13.274 3.2398,-18.941 0.5587,-1.338 2.0131,-4.187 3.2313,-6.328 3.3224,-5.844 6.4394,-12.329 7.5693,-15.748 1.0704,-3.24 2.9308,-11.61 2.6438,-11.897 -0.096,-0.1 -0.6576,0.791 -1.2528,1.968 -1.6031,3.169 -4.6309,8.545 -6.5441,11.623 -1.8143,2.918 -7.0548,10.009 -7.9312,10.733 -0.6317,0.521 -0.5981,0.43 0.8947,-2.436 5.9623,-11.446 9.9769,-26.392 11.3823,-42.371 0.2803,-3.185 0.6077,-5.95 0.7286,-6.146 0.1286,-0.208 0.058,-0.253 -0.1766,-0.109 -0.2179,0.134 -0.7152,0.87 -1.1059,1.636 -1.6224,3.18 -4.6866,7.374 -7.3303,10.032 -1.5504,1.559 -2.8886,2.765 -2.973,2.68 -0.086,-0.09 0.5808,-1.376 1.4783,-2.87 3.5557,-5.917 7.7479,-16.161 11.5705,-28.276 1.5091,-4.783 3.2677,-10.033 3.909,-11.664 0.6403,-1.632 0.9503,-2.747 0.6892,-2.478 -0.5769,0.594 -5.1118,7.739 -8.5859,13.528 -1.3977,2.329 -2.6793,4.386 -2.8473,4.572 -0.4828,0.534 3.3542,-10.408 4.8066,-13.709 5.1473,-11.696 12.3125,-22.143 21.054,-30.694 6.3732,-6.235 10.3215,-9.166 20.6037,-15.296 3.4453,-2.055 7.5598,-4.665 9.1437,-5.8 3.4069,-2.445 6.547,-5.197 5.587,-4.897 -1.8038,0.562 -18.8144,9.204 -22.7042,11.534 -8.6915,5.206 -13.1793,8.881 -20.1237,16.48 -2.4921,2.726 -4.5743,4.914 -4.6271,4.86 -0.2275,-0.227 6.786,-16.065 7.7047,-17.401 1.6953,-2.464 6.8215,-6.432 12.4085,-9.606 1.7261,-0.98 3.0806,-1.839 3.0105,-1.908 -0.067,-0.07 -1.4054,0.27 -2.9673,0.758 -3.3378,1.04 -8.3334,3.598 -13.2129,6.764 -4.3957,2.852 -3.813,2.144 2.2233,-2.705 12.924,-10.38 33.3473,-23.255 42.0138,-26.485 l 2.0323,-0.757 -1.3958,-0.02 c -1.4208,-0.02 -5.683,-0.695 -8.9719,-1.426 l -1.8239,-0.406 3.5788,-0.41 c 6.881,-0.789 11.6578,-2.093 16.9098,-4.616 4.2449,-2.04 7.3706,-5.283 9.8905,-10.261 2.4537,-4.849 3.6536,-8.261 3.8677,-10.997 l 0.1728,-2.212 -1.511,1.602 c -2.4661,2.615 -5.2068,8.183 -7.5444,15.331 -1.0684,3.269 -1.1078,3.332 -1.1289,1.821 -0.058,-4.177 2.2041,-13.78 4.5243,-19.201 3.6854,-8.611 11.2969,-17.533 18.1309,-21.253 0.9408,-0.51 1.6617,-0.977 1.6032,-1.035 -0.058,-0.06 -1.4688,0.456 -3.1343,1.142 -3.8005,1.568 -8.8221,4.418 -11.5715,6.567 -2.3615,1.847 -2.6619,1.978 -2.0898,0.909 0.7065,-1.32 3.4482,-4.037 6.6602,-6.599 4.2681,-3.405 6.1794,-6.173 7.7883,-11.286 1.1442,-3.633 1.1442,-3.66 0.077,-3.895 -1.3795,-0.303 -2.8569,0.447 -6.2504,3.169 -1.6588,1.331 -3.1477,2.419 -3.31,2.419 -0.1622,0 0.9763,-1.41 2.5305,-3.132 3.2668,-3.623 5.1454,-6.056 6.811,-8.826 l 1.1836,-1.969 2.0303,4.244 c 4.5004,9.409 9.6391,15.409 18.0129,21.032 3.141,2.11 7.2928,4.218 9.2588,4.701 0.5338,0.131 0.8918,0.318 0.7949,0.415 -0.312,0.312 -7.0807,-1.622 -10.3782,-2.965 -4.6175,-1.88 -4.6703,-1.399 -0.1747,1.592 3.6037,2.398 6.5508,3.644 10.6537,4.505 l 3.213,0.674 -4.0645,0.02 c -2.2348,0.01 -5.0485,-0.125 -6.2523,-0.298 -1.2038,-0.175 -2.2329,-0.272 -2.2885,-0.217 -0.058,0.06 1.0828,0.559 2.5276,1.122 2.8856,1.122 7.4387,2.327 10.0777,2.666 l 1.6934,0.218 -1.5715,0.62 c -5.3537,2.115 -16.4298,9.418 -21.7567,14.346 l -1.653,1.53 -2.7494,-1.984 c -3.572,-2.577 -6.5143,-4.026 -9.3961,-4.627 -2.6553,-0.553 -4.4994,-0.37 -6.7294,0.67 l -1.5244,0.711 1.6934,0.213 c 2.1724,0.274 3.6488,0.905 6.6506,2.847 2.6198,1.696 6.5988,4.78 7.3783,5.719 0.4301,0.52 0.3341,0.729 -0.9072,1.971 l -1.389,1.389 -1.632,-0.648 c -0.8966,-0.357 -1.7846,-0.695 -1.9708,-0.753 -0.4205,-0.129 2.2387,1.581 2.7023,1.739 0.1843,0.07 -0.311,0.884 -1.1001,1.826 -1.9612,2.343 -1.8134,2.733 0.1814,0.48 l 1.608,-1.817 1.8441,1.088 c 3.7995,2.239 10.1411,5.245 14.2449,6.75 l 4.2431,1.556 -0.3888,2.37 c -0.2141,1.302 -0.4829,3.13 -0.5971,4.061 l -0.2064,1.694 0.6883,-1.524 c 0.3782,-0.838 1.1635,-2.56 1.7452,-3.827 l 1.056,-2.303 1.8892,0.204 c 3.6901,0.399 3.644,-0.205 0.4761,6.124 -1.5513,3.098 -2.8108,5.806 -2.8012,6.019 0.01,0.213 0.8544,-1.361 1.8748,-3.497 1.0195,-2.137 2.4096,-4.833 3.0863,-5.991 l 1.2326,-2.107 8.4084,-0.02 c 4.6241,0 8.4083,0.08 8.4083,0.194 0,0.625 -1.5858,2.603 -3.1381,3.916 -2.5929,2.192 -4.7509,3.594 -8.3728,5.437 l -3.2207,1.64 2.709,-0.223 c 4.0491,-0.332 10.4041,-1.82 14.5205,-3.4 0.4233,-0.163 0.4223,0 0,1.236 -0.2698,0.783 -0.4407,1.572 -0.3802,1.753 0.058,0.181 0.3802,-0.53 0.7113,-1.579 0.5443,-1.728 0.7354,-1.962 2.0198,-2.472 0.7805,-0.309 2.3903,-1.075 3.5769,-1.701 l 2.158,-1.14 -0.2304,0.951 c -0.3437,1.417 -2.1734,4.312 -4.0732,6.445 -1.1894,1.336 -1.437,1.758 -0.8467,1.443 2.5132,-1.343 5.7426,-3.515 9.8915,-6.654 5.6091,-4.242 5.8328,-4.355 5.5218,-2.789 -0.5069,2.558 -1.3795,4.878 -2.5795,6.856 -0.695,1.146 -1.2095,2.141 -1.1423,2.212 0.3897,0.407 5.6455,-4.858 7.3284,-7.341 l 0.5279,-0.779 0.1853,0.779 c 0.1027,0.429 0.2918,1.51 0.4205,2.403 0.1296,0.893 0.3062,1.553 0.3936,1.465 0.086,-0.09 -0.01,-1.257 -0.2208,-2.601 -0.4195,-2.707 -0.6019,-2.122 2.3893,-7.67 0.7238,-1.343 1.3161,-2.508 1.3161,-2.587 0,-0.08 -0.8764,0.215 -1.9468,0.655 -3.1535,1.297 -3.2399,1.249 -2.9816,-1.638 0.6892,-7.686 2.5938,-15.927 5.0052,-21.657 l 0.6701,-1.593 1.9122,1.055 c 1.0522,0.58 2.0515,1.175 2.2204,1.324 0.1786,0.155 -0.1507,1.428 -0.7823,3.028 -0.6,1.517 -1.0368,2.812 -0.9715,2.878 0.067,0.07 0.6489,-1.131 1.2969,-2.66 0.9696,-2.288 1.2969,-2.759 1.8489,-2.666 1.078,0.181 1.2499,0.565 0.8784,1.96 -0.768,2.878 -1.3901,9.512 -1.3392,14.284 l 0.048,4.978 0.2602,-5.926 c 0.2553,-5.821 0.9945,-11.951 1.6482,-13.671 l 0.3322,-0.872 1.7893,0.834 c 0.985,0.458 2.2924,0.929 2.9059,1.046 1.103,0.211 1.1135,0.23 0.9417,1.782 l -0.1728,1.567 0.3533,-1.469 c 0.3302,-1.37 0.4147,-1.454 1.2585,-1.243 1.0905,0.274 0.9379,0.125 1.581,1.543 l 0.5319,1.169 -0.2074,-1.1 -0.2064,-1.101 h 2.8511 c 6.2177,0 12.5381,-2.595 15.0293,-6.17 l 0.8774,-1.259 -0.8861,-1.052 c -0.4867,-0.579 -0.887,-1.156 -0.8899,-1.281 -0.029,-1.194 -1.5887,-1.039 -11.509,1.141 -1.7606,0.386 -3.4242,0.505 -5.419,0.385 -3.1132,-0.187 -6.547,-1.19 -6.6967,-1.955 -0.077,-0.386 0.6623,-0.482 3.8945,-0.507 3.8207,-0.03 4.1845,-0.1 8.7021,-1.624 2.5939,-0.877 5.4891,-1.758 6.4347,-1.957 0.9456,-0.2 1.966,-0.493 2.2684,-0.65 1.2873,-0.673 2.1206,-4.221 1.3353,-5.689 -0.1747,-0.326 -1.3737,-1.473 -2.6639,-2.548 -3.0316,-2.525 -3.9455,-4.109 -3.9551,-6.844 v -2.072 l -1.8172,1.026 c -1.5724,0.887 -2.1445,1.023 -4.2334,1.001 -1.3286,0 -2.7964,-0.17 -3.262,-0.348 -0.7891,-0.302 -0.7142,-0.367 1.1184,-0.945 2.6312,-0.831 4.2977,-2.341 6.4221,-5.821 0.9974,-1.634 2.2166,-3.174 2.7887,-3.524 1.3162,-0.803 2.71,-0.791 3.5337,0.03 0.671,0.671 1.3718,2.682 1.3746,3.947 0,0.661 -0.6335,2.978 -1.1663,4.254 -0.1891,0.454 0.038,0.6 1.2297,0.778 0.8045,0.12 2.5833,0.615 3.9541,1.098 2.373,0.836 2.6006,0.857 4.795,0.442 1.2672,-0.239 2.7763,-0.34 3.3551,-0.223 1.1385,0.227 1.1193,0.321 0.4752,-2.315 -0.096,-0.373 -1.0281,-2.506 -2.0822,-4.741 -1.8047,-3.827 -1.9161,-4.213 -1.9074,-6.604 0,-1.397 0.2582,-3.683 0.5616,-5.08 0.3043,-1.397 0.7353,-3.682 0.959,-5.08 0.9849,-6.172 2.9528,-9.917 5.9604,-11.344 2.4921,-1.183 6.7361,-0.04 12.0975,3.259 0.9052,0.557 1.7203,0.938 1.8115,0.847 0.2947,-0.294 -1.6685,-3.568 -2.9212,-4.873 -0.6682,-0.696 -1.824,-1.596 -2.5689,-2 -1.1635,-0.63 -1.2633,-0.769 -0.7133,-0.986 0.9053,-0.355 4.0444,0.787 6.2869,2.288 1.0329,0.692 3.1813,2.524 4.7729,4.07 1.5926,1.547 2.4239,2.393 1.847,1.882 -0.5769,-0.513 -1.2211,-0.931 -1.4313,-0.931 -0.2102,0 -0.8832,1.256 -1.4947,2.793 -1.0713,2.693 -1.1145,2.982 -1.1721,7.96 -0.029,2.842 -0.2477,6.163 -0.4771,7.381 -0.2304,1.218 -0.3619,2.259 -0.2928,2.314 0.067,0.06 1.4035,0.848 2.9653,1.762 4.7048,2.757 11.0253,9.167 14.6635,14.871 3.5865,5.623 3.7295,6.244 0.3427,1.486 -4.1163,-5.781 -10.0115,-11.596 -15.1262,-14.92 -3.1131,-2.022 -3.5653,-2.23 -3.5653,-1.629 0,0.19 -0.6278,1.635 -1.3938,3.212 -1.4525,2.985 -4.3871,6.556 -6.8609,8.348 -0.8755,0.635 -1.1577,1.009 -0.8477,1.123 0.2563,0.1 1.7971,0.551 3.4242,1.018 17.9312,5.145 34.1902,18.026 41.7826,33.102 3.1007,6.158 4.699,12.075 5.012,18.551 l 0.1708,3.556 -0.478,-3.724 c -0.6519,-5.074 -1.3786,-8.219 -2.7772,-12.024 -4.9842,-13.555 -16.8513,-25.928 -32.3595,-33.739 -4.9371,-2.486 -14.1135,-5.684 -14.6808,-5.116 -0.1238,0.125 -0.2438,0.777 -0.2649,1.451 l -0.038,1.226 3.0479,1.102 c 7.3658,2.663 13.4798,6.667 19.6447,12.868 5.5102,5.54 9.9261,11.773 14.8958,21.023 2.2214,4.134 1.7097,3.522 -1.7337,-2.077 -9.2704,-15.067 -16.7437,-22.519 -28.4976,-28.415 -1.9976,-1.002 -4.3697,-2.016 -5.2721,-2.253 -1.511,-0.397 -1.678,-0.38 -2.1206,0.226 -0.6681,0.913 -0.4963,1.209 1.4131,2.436 10.5884,6.808 17.5175,13.403 23.5701,22.433 4.1893,6.25 6.5383,11.451 9.4067,20.823 0.9638,3.148 2.1993,6.73 2.7455,7.959 0.5472,1.229 0.7718,1.946 0.4992,1.592 -0.72,-0.935 -2.399,-5.071 -4.412,-10.871 -0.9706,-2.794 -2.3328,-6.402 -3.0278,-8.018 -3.2821,-7.633 -10.8226,-17.979 -17.1354,-23.512 -4.5464,-3.984 -14.0798,-10.632 -15.2471,-10.632 -0.2602,0 0.1334,0.406 0.8745,0.902 3.6354,2.432 9.0966,7.329 12.781,11.458 6.8714,7.704 12.516,18.41 14.8392,28.148 2.6226,10.994 2.4892,22.299 -0.4301,36.281 -0.8611,4.128 -1.2249,4.407 -0.4829,0.369 1.679,-9.135 2.3164,-19.765 1.5907,-26.53 -1.6387,-15.288 -7.3543,-27.529 -18.3152,-39.225 -3.2149,-3.431 -11.1059,-10.049 -11.9813,-10.049 -0.6797,0 0.2687,1.149 4.2785,5.185 2.4681,2.484 5.3451,5.572 6.3934,6.862 4.3592,5.364 8.6714,12.169 12.2981,19.409 2.2473,4.485 5.42,11.853 5.1992,12.075 -0.067,0.07 -0.9312,-1.704 -1.9286,-3.926 -3.6056,-8.032 -10.0451,-18.787 -14.8766,-24.844 -2.2895,-2.872 -9.062,-9.921 -10.0268,-10.438 -0.3773,-0.202 -1.1328,-0.418 -1.6809,-0.482 -0.5482,-0.07 -1.2499,-0.344 -1.558,-0.624 -1.2192,-1.104 -1.0464,-0.429 0.1977,0.773 3.0633,2.958 9.6698,11.803 12.901,17.275 3.8437,6.508 6.3886,12.893 7.2525,18.198 0.4733,2.905 0.5146,11.983 0.067,15.061 -0.19,1.312 -0.2764,-0.141 -0.2908,-4.911 -0.019,-7.052 -0.3581,-9.72 -1.8796,-14.883 -0.8861,-3.006 -4.0818,-9.725 -6.2091,-13.057 -1.6694,-2.613 -8.9565,-12.529 -9.208,-12.529 -0.077,0 0.097,0.459 0.3869,1.019 2.0975,4.056 5.3604,24.427 5.203,32.477 l -0.038,2.232 -0.264,-2.371 c -0.145,-1.304 -0.4435,-4.352 -0.6633,-6.773 -0.4656,-5.125 -1.6973,-12.77 -2.71,-16.812 -1.0176,-4.068 -3.7141,-12.095 -4.1538,-12.367 -0.4656,-0.288 -2.6197,2.151 -2.6197,2.967 0,0.329 0.4675,1.865 1.0386,3.414 1.2902,3.499 2.686,8.807 2.686,10.214 0,0.582 0.8362,2.813 1.8576,4.958 2.9058,6.106 3.3512,8.15 3.357,15.416 0,5.05 -0.1508,7.025 -0.9014,11.513 -1.7808,10.643 -2.3136,16.164 -2.5968,26.924 -0.3215,12.252 -0.1612,11.473 -6.0717,29.463 -2.0496,6.24 -3.9244,12.03 -4.1673,12.868 -0.7295,2.531 -0.5347,15.142 0.36,23.198 1.4803,13.329 1.488,15.207 0.086,20.997 -0.3619,1.49 -0.9878,4.453 -1.3919,6.585 -0.4032,2.131 -1.2509,5.199 -1.8825,6.817 -1.9756,5.053 -2.1532,8.364 -0.8198,15.271 0.8303,4.305 0.9743,6.819 0.6441,11.204 -0.4262,5.654 -0.9926,8.991 -2.8588,16.848 -1.9842,8.35 -2.3404,11.284 -2.0956,17.271 0.4157,10.198 3.0134,18.61 7.0731,22.902 3.1755,3.358 6.281,4.819 12.2904,5.782 4.1653,0.667 19.6092,0.756 25.7069,0.146 3.9858,-0.398 8.3277,-1.282 8.3268,-1.694 0,-0.117 -1.1808,-0.216 -2.6246,-0.22 -2.5064,-0.01 -11.7269,-1.162 -11.4533,-1.435 0.067,-0.07 1.7826,-0.281 3.8024,-0.463 10.6134,-0.958 20.8159,-4.274 26.3626,-8.569 2.0755,-1.607 5.3355,-5.192 6.451,-7.094 l 0.6201,-1.058 -1.2182,1.063 c -2.9039,2.532 -6.7207,4.674 -10.814,6.066 -3.4866,1.186 -3.8619,1.019 -1.1347,-0.503 2.9769,-1.662 5.8453,-4.219 7.7537,-6.913 1.869,-2.638 2.5736,-4.048 3.9176,-7.841 1.127,-3.18 3.5528,-12.997 3.2792,-13.27 -0.086,-0.09 -0.7343,0.883 -1.4399,2.154 -2.7868,5.022 -8.1828,13.354 -7.4177,11.455 2.9615,-7.354 3.8802,-11.077 3.8879,-15.747 0,-3.903 -0.8611,-7.802 -2.5468,-11.454 -1.1587,-2.508 -3.8562,-6.969 -4.0799,-6.745 -0.058,0.06 0.1104,1.016 0.3783,2.126 0.6451,2.676 1.0204,8.477 0.4694,7.267 -3.3666,-7.394 -5.299,-9.983 -14.4245,-19.335 -6.9511,-7.124 -7.888,-8.37 -8.4045,-11.175 -0.4992,-2.715 1.1501,-5.637 3.8591,-6.836 4.9237,-2.177 14.1278,1.149 22.0475,7.967 1.2106,1.042 2.254,1.841 2.3193,1.775 0.144,-0.144 -3.6872,-5.218 -5.3662,-7.107 -2.159,-2.43 -2.2665,-2.728 -0.5443,-1.51 11.5695,8.178 22.0168,23.349 25.2932,36.73 l 0.5808,2.37 0.038,-2.879 c 0.038,-2.953 -0.5904,-7.547 -1.4726,-10.821 -0.2746,-1.015 -0.4368,-1.908 -0.3619,-1.982 0.2477,-0.249 3.1314,5.816 4.1854,8.803 2.1984,6.229 3.6786,15.874 3.3302,21.695 -0.1095,1.816 -0.1412,3.302 -0.067,3.302 0.2361,0 2.1964,-6.243 2.8703,-9.143 0.3676,-1.584 0.9177,-4.708 1.222,-6.943 0.3043,-2.236 0.6163,-4.128 0.6931,-4.205 0.2976,-0.301 0.12,13.259 -0.2198,16.761 -1.079,11.126 -3.7314,21.063 -7.6298,28.59 l -1.8413,3.556 2.5401,-2.646 c 2.9135,-3.033 6.2667,-7.911 8.3095,-12.086 1.5311,-3.129 1.558,-2.524 0.097,2.203 -3.7371,12.086 -11.2201,22.418 -20.8485,28.782 -1.0733,0.71 -1.895,1.348 -1.8259,1.417 0.1997,0.2 8.7904,-3.343 13.261,-5.47 5.612,-2.668 6.066,-2.817 4.5714,-1.506 -2.4835,2.18 -8.4804,5.91 -13.0383,8.109 -11.5887,5.593 -25.4986,9.467 -34.0058,9.473 -1.5677,0 -2.7744,0.08 -2.6812,0.172 0.3619,0.362 7.5203,1.183 13.7246,1.576 3.5759,0.226 6.4375,0.513 6.3617,0.636 -0.4646,0.752 -27.8803,2.627 -40.236,2.753 -3.2034,0.03 -5.4795,0.18 -5.1982,0.337 0.7074,0.396 7.8986,2.132 11.9141,2.875 l 3.3868,0.627 -7.4503,0.1 c -4.2613,0.06 -10.9293,-0.128 -15.5784,-0.432 -7.9687,-0.519 -20.933,-1.701 -22.4325,-2.043 -0.4176,-0.1 -1.3218,0.06 -2.0092,0.348 -2.3817,0.996 -6.5796,1.881 -9.8569,2.078 l -3.2917,0.2 1.1154,-1.05 c 2.8943,-2.725 2.7619,-6.287 -0.6076,-16.327 -3.598,-10.719 -5.8404,-13.686 -11.4985,-15.209 -1.4428,-0.389 -1.5964,-0.352 -4.2277,0.99 -1.5014,0.767 -3.1026,1.679 -3.5567,2.027 l -0.8265,0.635 2.0755,4.691 c 4.0424,9.135 5.0475,12.776 4.7163,17.075 -0.2247,2.908 -0.1479,3.025 1.9737,3.025 2.2972,0 4.1249,-3.28 5.0254,-9.016 l 0.4195,-2.668 1.1241,2.879 c 0.7824,2.003 1.175,3.651 1.2912,5.418 0.1488,2.267 0.077,2.668 -0.6346,3.726 -1.2105,1.791 -2.8943,2.452 -6.7111,2.636 -3.7045,0.178 -6.0449,-0.33 -9.1178,-1.983 l -1.8287,-0.983 -3.0815,1.147 c -5.2424,1.949 -7.8429,2.398 -13.9185,2.399 -5.5909,0 -7.6759,-0.31 -10.7325,-1.598 -1.4677,-0.618 -1.8431,-0.638 -4.9102,-0.271 -4.9265,0.589 -22.5064,0.837 -27.5357,0.386 -2.3288,-0.208 -5.9604,-0.711 -8.0714,-1.118 l -3.8369,-0.74 -7.1691,1.094 c -8.7059,1.329 -19.3999,2.609 -25.7943,3.09 -6.6592,0.501 -21.9592,0.694 -26.4989,0.336 z m 125.2094,-5.578 c 0.5366,-0.278 1.078,-0.83 1.2047,-1.226 0.3015,-0.95 -0.1056,-5.389 -0.7142,-7.801 -0.2659,-1.051 -0.4771,-2.117 -0.4694,-2.37 0.029,-0.8 2.6399,2.407 3.5893,4.401 l 0.912,1.913 0.6739,-1.525 c 2.3596,-5.332 -0.6202,-15.416 -5.2645,-17.818 -0.934,-0.482 -1.1529,-0.48 -2.5045,0.04 -1.7712,0.676 -5.0811,3.832 -6.7409,6.426 -1.2585,1.968 -2.1935,4.949 -2.1935,6.994 0,1.637 1.0463,4.962 2.1599,6.861 2.1868,3.733 6.45,5.606 9.3472,4.109 z m -33.2206,-1.403 c 0.4339,-0.303 1.0012,-1.06 1.2604,-1.682 0.7718,-1.847 0.5693,-6.811 -0.4099,-10.042 -0.3677,-1.213 0.5981,-0.522 2.47,1.769 1.0617,1.299 1.9891,2.302 2.062,2.23 0.2803,-0.28 -1.3737,-5.543 -2.3999,-7.639 -2.0102,-4.103 -7.1758,-8.499 -11.1644,-9.5 -2.2147,-0.556 -3.9532,0.139 -6.307,2.523 l -1.8047,1.829 1.2354,0.585 c 0.6797,0.323 1.7635,1.204 2.4096,1.959 1.5263,1.783 4.2565,7.121 5.9556,11.645 1.4947,3.979 2.158,5.402 2.9317,6.283 0.6624,0.755 2.7091,0.778 3.7612,0.04 z m 92.3718,-0.834 c 2.8895,-0.884 5.3902,-2.284 7.1776,-4.017 1.848,-1.795 2.5344,-3.223 2.567,-5.346 0.019,-0.977 0.1306,-1.739 0.2553,-1.694 0.6567,0.237 4.4437,4.973 5.1042,6.382 0.4195,0.898 0.864,1.638 0.9859,1.645 0.1228,0.01 0.3187,-0.71 0.4358,-1.594 0.2553,-1.93 -0.4493,-4.867 -1.7606,-7.341 -1.8959,-3.574 -8.3421,-9.122 -15.5111,-13.347 -2.5718,-1.516 -3.6325,-1.711 -4.8152,-0.883 -1.1212,0.786 -0.959,2.401 0.5875,5.835 1.8114,4.023 2.4076,6.474 2.4066,9.894 0,3.813 -1.4639,8.464 -3.3301,10.583 -0.4896,0.556 -0.3974,0.592 1.5273,0.592 1.1261,0 3.093,-0.319 4.3698,-0.709 z m -22.5602,-0.653 c 0.7104,-0.562 1.6089,-1.677 1.9958,-2.477 3.1535,-6.514 -4.6491,-23.748 -11.8326,-26.134 -1.6905,-0.561 -2.5256,-0.438 -2.8549,0.419 -0.1171,0.306 0.7939,2.642 2.1378,5.478 3.5519,7.494 8.513,20.703 8.513,22.667 0,0.586 0.2717,1.071 0.6,1.071 0.077,0 0.7305,-0.46 1.4409,-1.024 z m -56.0716,-0.541 c 0.7584,-0.291 1.5388,-1.912 1.5388,-3.196 0,-0.735 -0.4166,-1.592 -1.3343,-2.744 -0.9178,-1.153 -1.439,-2.227 -1.6704,-3.436 -1.534,-8.035 -1.7385,-8.841 -2.5621,-10.086 -1.3171,-1.99 -3.2534,-3.12 -5.6389,-3.293 -1.1011,-0.08 -2.0015,-0.04 -2.0015,0.1 0,0.133 0.623,0.95 1.3843,1.815 1.6405,1.864 3.7755,6.158 4.5272,9.105 0.7113,2.792 1.534,8.329 1.5369,10.338 v 1.609 h 1.8345 c 1.0098,0 2.0821,-0.1 2.3836,-0.21 z m 65.7385,-1.156 c 0.7833,-0.379 1.8297,-1.275 2.325,-1.989 1.0118,-1.46 2.2223,-4.431 2.2223,-5.454 0,-1.051 0.6317,-0.792 1.2537,0.512 0.3111,0.652 0.6778,1.186 0.8151,1.186 0.5347,0 1.1327,-2.654 1.1078,-4.915 -0.058,-5.447 -3.5663,-9.749 -9.4653,-11.61 -2.8866,-0.91 -8.3536,-2.125 -8.1895,-1.818 0.7853,1.46 4.1701,8.66 4.8373,10.29 1.3391,3.27 2.5247,8.218 2.758,11.51 0.12,1.689 0.3628,2.977 0.5616,2.977 0.1929,0 0.9916,-0.311 1.774,-0.689 z m -61.4811,-11.446 c 1.5369,-4.363 2.5545,-8.228 2.879,-10.94 l 0.2284,-1.911 3.2678,-0.41 c 4.3505,-0.545 9.9471,-2.194 16.136,-4.754 7.6423,-3.161 11.3056,-4.386 13.1228,-4.39 1.7318,0 1.8623,-0.147 1.0799,-1.182 -0.2784,-0.37 -0.9138,-1.893 -1.4102,-3.387 -0.8841,-2.658 -0.9042,-2.909 -0.9542,-12.028 -0.048,-8.161 -0.142,-9.745 -0.79,-12.804 -1.4697,-6.935 -4.5637,-13.284 -12.5938,-25.852 -3.7122,-5.808 -5.037,-8.182 -6.5873,-11.804 -2.1436,-5.005 -2.8905,-8.36 -3.1132,-13.993 l -0.1987,-5.02 -0.8812,0.221 c -2.5046,0.625 -6.2245,2.578 -11.0704,5.811 -7.4109,4.944 -9.5084,5.909 -13.3061,6.126 -3.2773,0.187 -4.6961,-0.129 -6.474,-1.44 l -1.1231,-0.829 1.7366,0.206 c 2.2376,0.265 5.5102,-0.387 7.6701,-1.526 l 1.7049,-0.901 -4.7413,-0.206 c -2.6073,-0.114 -6.6458,-0.551 -8.9738,-0.971 -5.515,-0.994 -8.3286,-0.817 -15.2394,0.957 -2.8876,0.741 -6.164,1.536 -7.2814,1.767 l -2.0322,0.418 1.5244,0.689 c 1.3593,0.614 2.2713,0.693 8.466,0.732 8.0915,0.05 7.8467,0 15.5783,3.966 6.3233,3.252 8.4381,3.793 13.9848,3.57 3.1285,-0.126 4.8737,-0.386 7.1805,-1.07 3.2274,-0.958 7.3428,-2.763 9.0208,-3.958 0.5549,-0.395 1.0771,-0.65 1.1606,-0.567 0.2775,0.278 -2.5304,4.312 -4.076,5.858 -4.0309,4.031 -10.215,6.545 -16.3223,6.637 l -2.2636,0.03 0.8217,0.64 c 1.2998,1.012 4.3199,1.771 7.1537,1.799 1.4332,0.01 2.4796,0.151 2.326,0.306 -0.8361,0.841 -5.1425,2.01 -7.9802,2.165 -4.9496,0.272 -7.1633,-0.683 -13.885,-5.994 -2.0485,-1.618 -4.4494,-3.434 -5.3354,-4.033 -2.2387,-1.515 -6.1342,-3.306 -8.5361,-3.923 -1.8431,-0.473 -7.9715,-0.745 -7.9715,-0.352 0,0.09 0.5452,0.881 1.2124,1.754 0.6672,0.874 1.8143,2.786 2.5497,4.249 0.9945,1.977 1.5743,2.745 2.2588,2.991 3.9234,1.407 6.5095,2.496 6.5095,2.741 0,0.16 -1.2191,0.29 -2.709,0.29 -1.4908,0 -2.71,0.126 -2.71,0.28 0,0.489 2.0323,3.372 3.6248,5.143 1.991,2.215 3.5884,3.121 8.2817,4.698 2.1186,0.711 4.3582,1.556 4.9784,1.877 0.6201,0.319 1.1836,0.526 1.2517,0.457 0.067,-0.07 -0.9042,-1.269 -2.1628,-2.669 -2.23,-2.479 -3.7822,-4.458 -3.7822,-4.821 0,-0.1 1.1049,0.326 2.4556,0.946 10.4809,4.801 26.3347,2.169 35.2067,-5.847 0.8544,-0.771 1.2835,-0.988 1.2835,-0.649 0,1.152 -1.8086,6.633 -2.8146,8.53 -2.0553,3.875 -8.1117,9.005 -15.036,12.737 -1.1558,0.623 -2.0476,1.187 -1.9813,1.253 0.2592,0.261 6.2925,-2.061 9.5027,-3.655 3.8936,-1.935 7.6192,-4.877 9.9241,-7.84 1.8412,-2.367 4.6462,-7.062 5.1742,-8.662 0.1997,-0.606 0.4714,-1.101 0.6038,-1.101 0.1325,0 0.4263,2.324 0.6528,5.165 0.4349,5.433 0.6922,6.79 1.8259,9.598 l 0.696,1.726 -2.1571,3.461 c -2.5237,4.05 -6.6382,8.899 -9.3721,11.047 -3.3868,2.662 -7.6683,4.629 -12.5334,5.759 -3.1775,0.738 -3.2072,0.616 -0.2294,-0.953 1.4918,-0.786 3.2447,-1.8 3.8946,-2.253 2.0255,-1.411 5.4516,-4.164 5.3316,-4.284 -0.067,-0.07 -1.2508,-0.282 -2.6399,-0.488 -3.4165,-0.507 -9.6044,-2.155 -12.6869,-3.379 -3.3637,-1.337 -8.7875,-4.075 -15.7914,-7.974 -3.1631,-1.76 -5.8376,-3.201 -5.9422,-3.201 -0.7229,0 5.1406,4.995 9.1475,7.793 1.4246,0.995 2.5362,1.863 2.469,1.93 -0.067,0.07 -2.0591,-0.582 -4.4293,-1.441 -2.3691,-0.859 -4.3659,-1.504 -4.4369,-1.433 -0.067,0.07 1.3603,1.874 3.1813,4.006 3.3109,3.878 7.7124,8.121 10.9388,10.545 l 1.7155,1.289 h -1.1347 c -0.624,-0.01 -1.7059,-0.219 -2.4047,-0.468 -0.6979,-0.249 -1.27,-0.344 -1.27,-0.212 0,0.332 3.6238,2.996 5.0801,3.734 0.6518,0.332 2.2818,0.954 3.6229,1.383 1.3411,0.429 2.3519,0.918 2.2483,1.087 -0.1085,0.174 -1.535,0.205 -3.3244,0.07 l -3.1353,-0.235 -1.5397,1.476 -1.5389,1.475 1.6752,1.864 c 0.9215,1.024 2.2722,2.717 3.0008,3.764 0.7286,1.046 1.8259,2.323 2.4383,2.838 1.0944,0.921 1.1722,0.933 4.5052,0.751 4.1566,-0.228 8.3056,-1.378 12.5957,-3.491 3.741,-1.843 4.5377,-2.553 2.3999,-2.139 -2.829,0.547 -9.6102,0.347 -13.2235,-0.389 -4.7701,-0.972 -5.1263,-1.312 -1.3872,-1.325 8.0292,-0.03 17.9139,-3.323 23.3608,-7.792 4.4283,-3.633 7.2477,-9.387 7.2477,-14.797 0,-1.632 0.067,-1.83 0.5031,-1.468 2.06,1.709 2.828,5.343 2.0639,9.769 -2.1791,12.628 -9.7677,20.807 -22.2232,23.954 -2.9663,0.75 -4.5474,0.924 -9.7226,1.07 -3.3992,0.1 -6.1802,0.212 -6.1802,0.257 0,0.05 0.7027,1.132 1.5618,2.412 3.6537,5.449 5.3816,10.08 6.7275,18.035 0.4694,2.776 0.8543,5.172 0.8543,5.323 0,0.898 0.889,-0.934 2.0409,-4.205 z m 3.3772,-16.531 c -4.0549,-0.61 -10.0173,-2.068 -9.7101,-2.375 0.067,-0.07 1.776,-0.28 3.7977,-0.471 9.0822,-0.861 16.855,-3.632 23.523,-8.389 2.6216,-1.87 7.0202,-5.998 8.9065,-8.357 l 1.3536,-1.694 -0.2371,1.82 c -0.5616,4.314 -2.8751,9.543 -5.5861,12.622 -2.9288,3.328 -7.8554,5.887 -12.9038,6.703 -2.0841,0.336 -7.3054,0.416 -9.1437,0.141 z m -6.9425,-19.662 c 0.1862,-0.161 1.2537,-0.893 2.3711,-1.626 6.1774,-4.057 15.7972,-11.988 20.9119,-17.241 1.2576,-1.292 2.2857,-2.139 2.2857,-1.883 0,0.944 -1.7922,6.303 -2.7138,8.115 -1.8086,3.553 -4.5051,5.965 -9.473,8.47 -3.4501,1.74 -14.5914,5.207 -13.3819,4.165 z m -62.1021,30.375 c 3.0959,-1.547 10.9436,-6.384 15.5092,-9.557 1.008,-0.702 1.965,-1.276 2.1254,-1.276 0.4531,0 -5.4411,6.673 -8.1521,9.229 -1.3334,1.257 -2.3433,2.286 -2.2444,2.286 0.2477,0 5.4958,-3.296 6.9444,-4.362 2.5967,-1.91 6.45,-5.103 9.9904,-8.279 2.0495,-1.838 5.0696,-4.241 6.713,-5.342 2.3385,-1.566 2.853,-2.048 2.3702,-2.218 -0.3389,-0.119 -2.3692,-0.89 -4.5109,-1.714 -2.1426,-0.822 -4.4158,-1.693 -5.0523,-1.934 -1.0761,-0.407 -0.839,-0.455 3.3868,-0.688 2.4988,-0.138 5.5342,-0.354 6.7447,-0.48 l 2.2012,-0.229 -2.878,-0.777 c -6.2177,-1.679 -11.2038,-3.15 -15.5754,-4.595 -5.2626,-1.739 -5.1771,-1.664 -7.7931,-6.776 -1.4457,-2.827 -1.7557,-3.749 -1.8037,-5.358 -0.038,-1.311 -0.1978,-1.946 -0.4858,-1.948 -0.7046,0 -1.7701,2.104 -1.7721,3.504 0,1.537 0.8554,5.023 1.5782,6.421 0.5731,1.109 0.3994,1.06 -1.5791,-0.445 -1.7827,-1.354 -13.238,-8.467 -13.6383,-8.467 -0.334,0 -0.2908,-1.873 0.2851,-12.361 l 0.1863,-3.387 -1.0742,1.186 c -1.8595,2.051 -7.195,8.813 -10.2515,12.993 -1.6166,2.21 -2.9385,3.934 -2.9385,3.832 0,-0.103 0.3015,-1.977 0.6701,-4.167 0.3686,-2.189 0.6124,-4.038 0.5433,-4.107 -0.1929,-0.194 -3.6286,5.182 -5.0926,7.968 -0.7123,1.355 -1.3343,2.422 -1.3833,2.37 -0.3341,-0.353 6.1111,-26.914 7.4522,-30.71 0.2899,-0.821 0.4627,-1.556 0.384,-1.635 -0.1613,-0.161 -0.7996,0.932 -4.1,7.021 -1.2614,2.329 -3.2524,5.986 -4.4235,8.128 -1.1712,2.142 -3.0355,5.566 -4.1433,7.609 -1.1068,2.044 -2.2223,3.827 -2.4786,3.965 -0.72,0.383 -6.5335,2.622 -6.6113,2.544 -0.167,-0.167 5.9624,-32.326 6.3617,-33.378 0.1709,-0.448 0.265,-0.859 0.2112,-0.914 -0.058,-0.06 -1.1491,1.199 -2.4325,2.784 -3.0835,3.81 -11.8633,12.83 -16.1476,16.59 -5.3883,4.731 -11.487,9.034 -12.0322,8.489 -0.096,-0.1 0.2803,-0.678 0.8274,-1.303 0.5472,-0.625 2.1408,-2.895 3.5404,-5.045 1.4006,-2.149 2.7906,-4.11 3.0901,-4.359 0.961,-0.797 0.5827,-1.07 -0.7257,-0.525 -3.0729,1.281 -7.673,5.023 -10.192,8.292 -2.5122,3.261 -4.3592,8.366 -4.6846,12.947 l -0.2141,3.012 6.572,-4.696 c 6.3972,-4.571 16.1811,-11.429 21.292,-14.925 2.5862,-1.769 3.3829,-2.016 2.135,-0.663 -0.9178,0.995 -5.9672,8.799 -7.9965,12.355 -2.6246,4.602 -5.8328,11.231 -7.0913,14.652 -1.9123,5.198 -1.9411,5.015 0.4876,3.055 5.3279,-4.3 11.6992,-8.4 17.387,-11.189 4.1211,-2.019 8.9737,-3.831 8.9737,-3.348 0,0.783 -2.1685,5.493 -3.4223,7.433 -2.0274,3.137 -5.7396,6.53 -10.7813,9.853 -2.5036,1.65 -4.4562,3.001 -4.3401,3.001 0.793,0 9.1034,-3.195 13.4281,-5.162 8.511,-3.872 14.8266,-7.603 20.4933,-12.106 1.4457,-1.149 2.6706,-2.039 2.7206,-1.977 0.1651,0.204 1.8162,4.829 2.3365,6.546 2.3865,7.871 1.8124,17.745 -1.4534,25.024 -0.5519,1.231 -0.934,2.238 -0.8476,2.238 0.4233,0 4.1653,-5.509 4.988,-7.341 1.2921,-2.879 2.2559,-6.844 2.5016,-10.285 0.2602,-3.653 -0.3868,-10.041 -1.438,-14.184 -0.4454,-1.756 -0.7574,-3.245 -0.6931,-3.31 0.1632,-0.163 6.4903,8.268 9.1639,12.211 3.6766,5.424 5.6119,9.847 5.6119,12.83 0,2.338 0.577,1.036 1.0185,-2.3 0.2362,-1.788 0.3447,-4.38 0.24,-5.76 l -0.1891,-2.509 0.9043,0.465 c 0.4982,0.258 4.2575,1.71 8.3556,3.23 4.098,1.519 7.7536,2.883 8.1241,3.032 0.5799,0.233 0.4474,0.371 -0.9407,0.985 -0.888,0.393 -2.2588,1.241 -3.045,1.885 -1.1952,0.979 -1.8547,1.23 -4.0261,1.532 -11.1577,1.549 -18.6925,4.7 -23.2994,9.74 -1.8556,2.031 -3.5989,4.442 -3.3627,4.652 0.077,0.07 3.6286,-1.612 7.8986,-3.729 4.2699,-2.116 7.8055,-3.806 7.8563,-3.755 0.2986,0.298 -5.5495,5.926 -7.7968,7.506 -1.4716,1.032 -2.493,1.877 -2.2703,1.877 0.2227,0 1.9324,-0.763 3.8005,-1.697 z m 131.5403,-11.46 0.8649,-0.231 -0.9887,-0.947 c -0.9235,-0.885 -1.2067,-0.955 -4.3333,-1.062 -3.8053,-0.131 -8.4535,-1.129 -11.1078,-2.384 -3.14,-1.485 -6.186,-5.49 -6.8397,-8.993 l -0.217,-1.165 1.6521,1.556 c 0.9091,0.857 2.1369,1.889 2.7302,2.293 2.397,1.638 7.2967,2.959 13.1765,3.553 l 1.7241,0.173 -0.6672,-2.432 c -1.5014,-5.475 -1.1904,-4.967 -3.6421,-5.949 -5.7877,-2.316 -9.7907,-6.103 -12.8002,-12.109 -1.8297,-3.653 -5.5554,-15.392 -5.0466,-15.902 0.077,-0.07 0.3917,0.701 0.7114,1.716 2.3634,7.496 6.9655,14.227 12.0235,17.587 2.0045,1.331 5.8242,3.25 6.4702,3.25 0.1335,0 0.1527,-0.523 0.038,-1.161 -0.1584,-0.918 -0.7411,-1.621 -2.78,-3.359 -1.4189,-1.208 -3.4847,-3.315 -4.5896,-4.681 -2.088,-2.58 -5.2751,-7.055 -5.0264,-7.055 0.077,0 0.9503,0.48 1.9362,1.065 1.9094,1.135 10.1392,5.105 10.264,4.953 0.038,-0.05 0.1776,-1.032 0.3024,-2.181 0.2073,-1.896 0.166,-2.109 -0.4464,-2.303 -1.7059,-0.542 -6.2369,-3.93 -9.0122,-6.738 -3.1352,-3.173 -5.3479,-6.221 -7.2477,-9.985 -1.9584,-3.879 -1.9632,-3.871 1.1039,-1.806 3.4146,2.3 10.4262,5.706 15.0197,7.296 l 3.4491,1.194 0.2208,-1.927 c 0.4714,-4.106 0.7824,-3.617 -3.3944,-5.354 -2.0486,-0.853 -5.659,-2.33 -8.0234,-3.284 -4.0741,-1.644 -4.2507,-1.753 -3.3868,-2.116 3.3301,-1.396 8.584,-1.473 13.0988,-0.19 1.3007,0.369 2.4018,0.635 2.4469,0.59 0.048,-0.05 0.1805,-1.15 0.3014,-2.455 l 0.2208,-2.373 -2.589,-0.57 c -3.9963,-0.878 -8.9046,-1.333 -11.8901,-1.103 -2.5468,0.197 -2.6678,0.176 -2.0313,-0.347 1.1279,-0.926 5.9566,-3.091 8.297,-3.72 1.2287,-0.329 3.5077,-0.604 5.1588,-0.62 3.3637,-0.03 3.2889,0.101 1.7107,-3.037 -1.3142,-2.615 -3.5922,-4.793 -6.5719,-6.285 l -2.6505,-1.326 1.7375,-0.577 c 0.9552,-0.318 2.8943,-0.672 4.3093,-0.786 l 2.5708,-0.209 0.9033,-3.387 c 0.4963,-1.862 0.9158,-3.636 0.9312,-3.939 0.067,-1.295 -5.8587,-1.721 -10.8255,-0.779 -9.4375,1.79 -19.0986,7.987 -26.9348,17.273 l -3.2859,3.895 0.9475,2.442 c 1.2882,3.324 4.0155,8.743 7.0423,13.992 7.0538,12.237 8.7405,17.283 10.2322,30.614 1.487,13.292 2.9462,16.266 9.4759,19.311 2.4469,1.142 5.7233,2.105 8.4659,2.489 1.2297,0.172 5.588,-0.1 6.787,-0.415 z m -91.4675,-19.309 c -0.1766,-0.162 -3.5423,-2.453 -7.4791,-5.092 -7.3533,-4.932 -10.1113,-7.206 -11.1346,-9.184 -0.3216,-0.623 -0.9446,-2.474 -1.3824,-4.112 -0.9408,-3.515 -2.2022,-6.132 -4.3016,-8.926 -1.4198,-1.887 -5.5841,-5.765 -5.8769,-5.472 -0.067,0.07 0.3993,1.008 1.0463,2.083 0.6471,1.074 1.6521,3.116 2.2339,4.537 0.5817,1.422 1.5052,3.56 2.0534,4.752 0.5471,1.192 0.9206,2.242 0.8294,2.333 -0.2525,0.251 -13.1055,-12.187 -16.3732,-15.845 -6.7131,-7.514 -9.1802,-12.51 -10.3926,-21.043 -0.5626,-3.953 -0.6691,-8.42 -0.2026,-8.42 0.4752,0 7.8247,8.122 11.6425,12.864 3.5471,4.406 6.9252,9.322 9.4278,13.72 0.8064,1.419 1.5081,2.454 1.559,2.303 0.048,-0.152 -0.3504,-2.104 -0.8918,-4.337 l -0.9849,-4.061 6.7351,6.88 c 10.072,10.29 12.8309,14.1 14.0232,19.365 l 0.4982,2.202 -0.1296,-3.387 c -0.099,-2.581 -0.336,-3.931 -0.9955,-5.677 -1.391,-3.679 -3.7006,-7.874 -7.0663,-12.84 -10.2006,-15.046 -12.3125,-18.323 -13.8062,-21.411 -2.542,-5.259 -2.9548,-6.751 -4.2191,-15.272 -0.192,-1.295 -0.1324,-1.408 1.3296,-2.54 5.8356,-4.52 11.9343,-6.399 20.837,-6.423 5.133,-0.01 10.7689,-0.472 14.5618,-1.184 5.1857,-0.973 11.8114,-3.454 15.4621,-5.789 1.0358,-0.663 1.9286,-1.158 1.9833,-1.102 0.058,0.06 -0.696,2.01 -1.6694,4.338 -4.0318,9.644 -6.3511,12.944 -11.0348,15.693 l -1.5234,0.895 h 1.223 c 3.692,0 7.504,-1.558 10.2418,-4.213 0.9706,-0.94 3.0153,-3.492 4.5436,-5.67 3.4856,-4.965 4.5857,-5.862 7.192,-5.862 1.6502,0 2.1849,0.178 3.8245,1.266 1.0483,0.697 2.7743,2.134 3.8351,3.194 l 1.9295,1.93 -0.216,-4.719 c -0.2256,-4.934 -1.1903,-10.048 -2.6015,-13.793 -0.406,-1.08 -0.6575,-2.174 -0.5587,-2.434 0.099,-0.258 1.2941,-1.251 2.6543,-2.208 l 2.4748,-1.74 0.2266,3.495 c 0.1248,1.922 0.3897,4.208 0.5894,5.079 1.6185,7.094 1.8403,17.407 0.5261,24.492 -0.1824,0.983 -0.1344,0.96 1.4658,-0.726 2.111,-2.222 2.8598,-4.235 4.1116,-11.041 0.6787,-3.693 1.2354,-5.775 1.8124,-6.773 0.4569,-0.792 1.7442,-2.964 2.8588,-4.826 1.1154,-1.864 2.4738,-4.182 3.0191,-5.153 l 0.9906,-1.765 0.038,5.321 c 0.029,4.514 0.1652,5.813 0.8851,8.56 0.839,3.205 2.9087,7.824 4.2392,9.461 0.6615,0.814 0.6567,0.74 -0.1065,-1.902 -1.0301,-3.563 -1.6675,-10.212 -1.39,-14.491 0.3887,-5.977 0.8169,-7.913 2.5544,-11.546 0.8909,-1.863 1.7769,-3.767 1.9699,-4.233 l 0.3513,-0.846 0.4003,1.015 c 0.7978,2.029 1.4131,5.988 1.6416,10.565 l 0.2332,4.675 1.2528,-3.556 c 1.6636,-4.722 1.9641,-6.413 1.9641,-11.055 0,-4.218 -0.9043,-9.666 -2.0255,-12.206 -0.5664,-1.282 -0.5731,-1.399 -0.067,-1.213 2.6677,0.968 5.5361,4.48 6.7994,8.323 0.7833,2.386 1.5417,8.01 1.2163,9.034 -0.4416,1.394 0.2333,0.62 1.0281,-1.178 2.3759,-5.373 2.9519,-9.391 2.6457,-18.459 -0.1469,-4.362 -0.086,-6.882 0.2006,-8.297 0.7459,-3.677 3.0969,-10.741 5.5227,-16.591 2.2895,-5.52 5.107,-13.38 4.8795,-13.608 -0.058,-0.06 -1.2614,-0.404 -2.6706,-0.764 -2.8876,-0.739 -6.0536,-2.23 -8.5591,-4.034 -3.5307,-2.541 -13.4702,-10.911 -13.236,-11.145 0.058,-0.06 1.3334,0.589 2.8453,1.426 11.4121,6.312 18.5024,8.843 22.4229,8.001 2.0265,-0.434 3.2188,-1.011 5.7761,-2.795 2.087,-1.455 2.2944,-1.45 4.5829,0.1 l 1.3949,0.945 0.7411,-3.973 c 0.407,-2.186 1.0895,-6.149 1.5157,-8.807 0.7191,-4.476 0.7344,-4.856 0.2112,-5.135 -1.126,-0.603 -5.8769,-1.683 -10.4271,-2.37 -4.9707,-0.751 -8.992,-1.725 -10.6412,-2.578 -0.5587,-0.289 -1.0695,-0.471 -1.1357,-0.406 -0.067,0.07 0.4435,0.83 1.1318,1.697 2.1254,2.673 4.6693,4.402 7.3476,4.993 0.9955,0.22 0.9782,0.239 -0.8457,0.926 -3.9993,1.504 -7.5425,1.31 -11.5043,-0.631 -3.7333,-1.83 -8.5821,-7.273 -13.2581,-14.882 l -2.11,-3.433 -0.7439,2.5 c -2.6457,8.896 -6.7841,14.495 -14.7298,19.925 l -3.2034,2.188 1.8873,-2.188 c 1.0377,-1.205 2.2012,-2.647 2.5852,-3.206 1.296,-1.883 4.1701,-7.049 4.0107,-7.207 -0.086,-0.09 -0.7324,0.181 -1.4341,0.595 -5.0715,2.992 -11.7232,4.333 -18.536,3.735 -4.6501,-0.407 -7.1115,-0.929 -19.3309,-4.098 -16.5517,-4.292 -18.0368,-5.042 -27.5366,-13.888 -8.8144,-8.206 -10.5203,-9.633 -13.3474,-11.154 -2.5554,-1.374 -3.0114,-1.507 -5.1732,-1.505 -1.3037,0 -2.6755,0.181 -3.0479,0.4 l -0.6768,0.396 0.6768,0.214 c 2.3941,0.756 4.723,2.668 7.7555,6.371 l 1.3219,1.614 -1.079,1.427 c -1.5532,2.054 -4.4245,6.095 -5.1992,7.319 -1.1827,1.868 -0.3955,1.11 0.9331,-0.898 0.9753,-1.475 4.2037,-5.907 5.4641,-7.502 0.058,-0.08 0.7431,0.61 1.5187,1.523 2.9817,3.515 8.7741,8.911 11.5369,10.748 1.5878,1.057 4.1643,2.501 5.7262,3.209 1.5618,0.709 3.2207,1.466 3.6863,1.684 l 0.8466,0.395 -0.8466,-0.15 c -0.4656,-0.09 -4.9468,-1.147 -9.9568,-2.367 -5.011,-1.219 -9.1552,-2.171 -9.2099,-2.116 -0.1488,0.148 13.2705,6.127 18.2355,8.125 2.9231,1.177 4.3198,1.907 4.3227,2.264 0,0.39 0.077,0.417 0.2736,0.104 0.2054,-0.323 1.0742,-0.151 3.6988,0.732 4.6568,1.569 11.8181,3.381 17.4656,4.419 2.5727,0.473 4.8459,0.86 5.0513,0.86 1.0925,0 -0.9849,0.637 -11.0252,3.38 -23.2014,6.34 -24.8746,7.013 -29.8617,12.018 -3.3733,3.385 -5.4468,6.657 -6.9588,10.98 -1.8786,5.371 -1.8661,5.373 3.0671,0.594 10.4886,-10.163 17.7277,-12.983 28.7827,-11.216 4.8546,0.777 12.8319,3.184 16.2234,4.897 1.1443,0.577 1.1021,0.584 -4.9102,0.777 -8.7405,0.279 -14.6116,1.477 -18.6733,3.809 -1.8508,1.062 -16.5834,15.688 -21.4062,21.25 -1.7395,2.007 -3.2025,3.607 -3.2495,3.555 -0.048,-0.05 0.4876,-2.378 1.1913,-5.172 0.7027,-2.794 1.2297,-5.134 1.1711,-5.2 -0.1795,-0.203 -2.9614,5.594 -5.4218,11.296 l -2.3376,5.418 -3.5874,3.576 c -3.2418,3.232 -3.7525,3.916 -5.3086,7.112 -0.9465,1.944 -2.1119,4.789 -2.59,6.322 -1.0223,3.283 -2.2376,9.048 -2.2376,10.616 0,1.517 -0.2784,1.116 -1.6089,-2.317 -2.687,-6.932 -3.8073,-14.79 -2.6217,-18.395 0.7785,-2.365 4.6001,-11.222 6.3233,-14.653 0.7353,-1.463 1.2739,-2.722 1.198,-2.798 -0.239,-0.24 -6.1044,6.035 -7.9504,8.506 -3.2994,4.416 -4.5167,7.292 -5.0091,11.836 -0.1738,1.598 -0.289,1.889 -0.5597,1.405 -0.6748,-1.204 -1.5983,-5.175 -1.9391,-8.334 -0.552,-5.112 -1.1309,-17.909 -0.9168,-20.26 0.3926,-4.323 3.8802,-9.905 16.2446,-26.002 1.1299,-1.471 0.048,-0.843 -3.1871,1.846 -3.9004,3.245 -8.2884,7.793 -9.9865,10.352 -0.696,1.047 -1.3104,1.859 -1.3661,1.804 -0.1603,-0.16 2.6668,-7.873 4.2488,-11.593 0.792,-1.863 2.7849,-6.093 4.4293,-9.4 1.6435,-3.308 2.7849,-5.899 2.5353,-5.758 -0.7805,0.441 -5.1954,5.884 -7.1297,8.789 -5.5457,8.331 -9.4153,17.666 -10.8303,26.129 -0.4637,2.77 -0.5443,4.812 -0.4061,10.304 0.1843,7.369 0.936,12.111 2.7724,17.492 l 0.8582,2.514 -0.8822,-0.822 c -1.7164,-1.596 -5.7588,-7.296 -7.3149,-10.313 -2.0179,-3.91 -3.1583,-7.326 -3.8505,-11.538 -1.1615,-7.062 0.1747,-15.648 3.4597,-22.224 0.6259,-1.253 1.1376,-2.39 1.1376,-2.528 0,-0.472 -2.0322,2.1 -3.5653,4.512 -5.7272,9.012 -6.9022,21.666 -3.07,33.08 2.6332,7.845 9.6746,18.567 17.7767,27.071 0.8428,0.884 1.4246,1.608 1.293,1.608 -0.2803,0 -3.9963,-2.62 -7.8621,-5.544 -1.4908,-1.127 -4.2728,-3.566 -6.1831,-5.419 -3.934,-3.816 -3.8428,-3.888 -2.2339,1.748 2.0764,7.274 7.7047,14.972 13.2217,18.086 3.0546,1.723 5.849,4.624 9.2003,9.55 l 3.0939,4.549 0.1287,3.67 c 0.1469,4.186 0.9446,7.513 2.7522,11.481 0.6518,1.431 1.1856,2.684 1.1856,2.784 0,0.272 -7.2795,-7.432 -10.3312,-10.934 -2.9385,-3.372 -6.3655,-7.875 -7.1556,-9.403 -0.2813,-0.543 -0.5894,-0.911 -0.6844,-0.816 -0.3005,0.3 1.1519,6.755 2.0648,9.182 0.482,1.28 0.7891,2.413 0.6826,2.52 -0.1066,0.107 -1.9871,-1.642 -4.1778,-3.884 -7.8362,-8.022 -12.1752,-16.332 -14.1288,-27.061 -0.4848,-2.663 -0.6192,-5.174 -0.6297,-11.745 0,-4.596 -0.1219,-8.162 -0.2544,-7.926 -0.1325,0.237 -0.6288,2.342 -1.1011,4.678 -0.9849,4.862 -1.4092,11.944 -0.9532,15.902 0.1641,1.432 0.1996,2.542 0.077,2.467 -0.48,-0.297 -5.3326,-8.714 -7.6087,-13.198 -2.8521,-5.617 -4.5666,-10.536 -4.5666,-13.099 0,-1.119 0.7613,-4.688 2.0102,-9.422 2.2665,-8.589 2.8943,-12.186 2.5756,-14.741 -0.1421,-1.132 -0.038,-2.558 0.3014,-4.007 0.551,-2.376 2.9039,-8.893 4.6328,-12.832 0.5664,-1.29 0.9676,-2.408 0.8918,-2.485 -0.1344,-0.134 -20.4262,20.773 -25.8989,26.685 -5.2395,5.659 -11.27,13.248 -10.8563,13.66 0.077,0.08 1.8768,-1.131 4.0098,-2.676 9.8185,-7.112 22.2463,-15.318 22.6254,-14.939 0.096,0.1 -0.2908,0.663 -0.8534,1.265 -4.1585,4.453 -19.6927,25.06 -22.6283,30.018 -0.3225,0.546 -0.086,0.43 2.0246,-0.997 3.7678,-2.547 14.3649,-8.217 16.737,-8.956 0.9763,-0.305 1.4985,-0.97 -6.4087,8.159 -6.3944,7.381 -11.3814,13.419 -14.364,17.385 -0.4541,0.605 -0.4781,0.618 3.667,-2.152 7.292,-4.876 14.0184,-7.596 19.4739,-7.877 l 3.2457,-0.166 -1.5235,1.266 c -2.8213,2.341 -10.336,10.103 -13.5826,14.03 -4.1633,5.034 -9.5199,11.894 -9.3836,12.017 0.058,0.06 2.469,-1.262 5.3556,-2.922 5.8808,-3.382 16.3914,-8.657 19.4461,-9.76 l 2.0053,-0.725 -4.2507,4.388 c -5.8472,6.035 -8.4515,10.116 -11.2335,17.597 l -1.1539,3.105 0.9398,-0.67 c 1.4572,-1.037 2.9548,-2.883 5.347,-6.589 1.2086,-1.872 2.9769,-4.456 3.9301,-5.744 l 1.7337,-2.339 0.2208,4.71 c 0.239,5.102 0.5789,7.234 1.6934,10.637 1.5263,4.662 4.2258,9.004 7.8516,12.629 1.8901,1.891 7.6202,6.164 7.8957,5.889 0.086,-0.09 -0.6365,-1.046 -1.5993,-2.138 -10.8102,-12.268 -13.6508,-25.442 -8.752,-40.594 0.5414,-1.676 1.1298,-3.272 1.3065,-3.546 0.406,-0.631 0.3772,-0.72 1.5369,4.731 1.079,5.075 2.7532,10.243 4.5829,14.147 1.3055,2.787 4.8487,8.958 6.0189,10.483 l 0.5799,0.756 3.2168,-0.667 c 5.0696,-1.049 4.699,-1.282 4.4898,2.828 -0.3322,6.502 1.462,11.629 7.1776,20.507 4.6242,7.185 16.4126,19.747 23.5643,25.112 4.246,3.185 13.5202,8.509 22.1705,12.726 5.4362,2.651 6.8397,3.237 6.0785,2.542 z m -37.863,-87.948 c -0.432,-3.155 -0.2256,-8.302 0.4704,-11.72 1.2787,-6.272 4.1643,-12.134 8.872,-18.023 5.3221,-6.656 17.8323,-18.594 27.5155,-26.259 0.792,-0.626 0.888,-0.768 -2.302,3.394 -2.8799,3.757 -5.2952,7.669 -7.601,12.309 -1.8326,3.689 -4.5848,10.362 -4.363,10.584 0.067,0.07 1.9228,-2.363 4.1326,-5.393 14.0578,-19.271 22.1128,-27.759 30.1199,-31.74 6.3204,-3.142 12.0294,-4.557 18.4573,-4.575 5.7099,-0.02 5.8183,0.07 3.8408,3.048 -2.3481,3.536 -6.5902,7.495 -11.6213,10.846 -2.4259,1.616 -4.4111,2.995 -4.4111,3.065 0,0.192 2.4499,-0.794 6.7956,-2.736 6.3291,-2.828 11.1702,-5.957 16.1188,-10.419 l 0.7334,-0.662 -0.3436,1.472 c -1.1942,5.114 1.3353,16.279 5.5073,24.312 0.72,1.386 1.2575,2.573 1.1942,2.636 -0.067,0.07 -1.6204,-1.524 -3.4617,-3.529 -1.8402,-2.004 -3.6507,-3.917 -4.0241,-4.252 -0.9523,-0.857 -2.855,-1.824 -4.126,-2.099 -0.9907,-0.213 -13.7054,1.103 -22.9662,2.379 -7.0942,0.976 -12.8031,2.722 -18.7952,5.744 -3.046,1.535 -7.8525,4.539 -7.2813,4.55 0.1862,0 1.6338,-0.217 3.2178,-0.489 6.8599,-1.179 12.8443,-1.535 25.7511,-1.535 13.187,0 15.5793,-0.187 19.2895,-1.512 l 1.5245,-0.544 -3.2178,3.247 c -4.5138,4.556 -4.3093,4.461 -10.1594,4.658 -3.1966,0.108 -5.3835,0.345 -6.2647,0.679 l -1.3555,0.514 2.014,0.907 c 4.4226,1.992 6.9588,2.649 10.3475,2.685 3.4357,0.04 2.8943,0.205 8.896,-2.777 0.1431,-0.07 -0.5865,1.47 -1.6204,3.423 -1.8441,3.485 -3.1228,7.711 -2.7561,9.114 0.2275,0.867 -0.288,0.752 -2.4431,-0.546 -7.4935,-4.51 -12.5851,-5.813 -17.2775,-4.419 -1.4927,0.443 -2.3845,1.109 -5.5649,4.152 -5.7156,5.471 -10.1094,8.128 -17.4608,10.558 -6.2571,2.07 -14.8516,3.181 -19.808,2.561 l -1.9477,-0.242 1.8988,-1.145 c 2.5621,-1.541 7.6701,-5.082 12.1954,-8.451 2.0495,-1.526 4.915,-3.625 6.3684,-4.667 l 2.6418,-1.893 -1.6098,-0.241 c -2.2511,-0.338 -7.8449,0.338 -11.4639,1.386 -9.3146,2.694 -15.8308,8.612 -21.5119,19.537 l -1.9257,3.703 z m 108.9447,-39.124 c 1.4322,-5.222 2.254,-12.122 2.254,-18.919 0,-2.802 0.1315,-5.093 0.2928,-5.093 0.5135,0 2.7992,5.537 3.931,9.524 1.2086,4.257 0.7018,5.97 -3.3992,11.48 -2.6716,3.59 -3.4453,4.346 -3.0786,3.008 z m -2.9577,-20.022 c -2.6082,-7.479 -6.4874,-12.673 -11.0252,-14.765 -2.303,-1.061 -5.947,-1.353 -8.9142,-0.713 -3.0662,0.661 -5.5055,0.559 -8.2058,-0.347 -5.443,-1.823 -21.5138,-8.398 -21.4966,-8.795 0,-0.108 1.2624,-0.717 2.7935,-1.351 1.5321,-0.636 6.4433,-2.961 10.9139,-5.169 l 8.1271,-4.014 -4.8594,4.745 c -2.6735,2.61 -4.7077,4.745 -4.5205,4.745 0.9322,0 7.8334,-2.647 11.5321,-4.422 5.9758,-2.868 10.3955,-5.883 14.3198,-9.767 1.8364,-1.817 3.3398,-3.246 3.3398,-3.175 0,0.07 -0.2592,1.225 -0.576,2.565 -0.8112,3.436 -0.7987,8.187 0.029,9.699 1.6895,3.102 4.8123,5.559 11.8104,9.291 2.0025,1.067 3.6402,1.978 3.6402,2.021 0,0.05 -1.7145,-0.109 -3.8101,-0.34 -4.2459,-0.469 -7.2554,-0.548 -9.1101,-0.242 l -1.2364,0.204 1.6329,2.248 c 3.0767,4.235 5.1598,9.348 6.2648,15.374 0.2995,1.631 0.4963,3.427 0.4387,3.989 -0.086,0.855 -0.2679,0.56 -1.0848,-1.781 z m 14.8065,-27.652 c -2.9259,-1.019 -5.1521,-2.194 -6.8263,-3.602 -1.1327,-0.953 -3.2389,-3.981 -3.8034,-5.467 l -0.3657,-0.966 0.9542,0.87 c 1.4927,1.359 2.5285,1.902 5.1665,2.703 2.1811,0.663 2.9759,0.726 7.2468,0.574 3.8572,-0.136 5.3806,-0.344 7.7796,-1.062 3.0172,-0.902 5.7127,-2.109 7.4503,-3.334 0.5232,-0.369 1.0041,-0.617 1.0703,-0.55 0.067,0.07 -0.5836,1.166 -1.4437,2.442 -1.8585,2.758 -6.9809,7.688 -9.0055,8.668 -2.0793,1.006 -4.8008,0.915 -8.2231,-0.276 z m -197.5476,146.499 c 10.8207,-6.363 19.5094,-14.481 26.5018,-24.76 1.5628,-2.296 1.2432,-2.232 -1.031,0.207 -4.2901,4.603 -14.4917,12.865 -19.7436,15.988 -2.6572,1.58 -7.6759,3.777 -7.9658,3.486 -0.077,-0.08 1.1673,-1.165 2.7579,-2.427 2.398,-1.9 7.6078,-7.427 7.6078,-8.071 0,-0.275 -3.2697,1.025 -5.9259,2.357 -4.7509,2.379 -7.6701,4.997 -9.4317,8.457 -0.7545,1.483 -1.8191,5.664 -2.0245,7.949 l -0.1709,1.907 3.2735,-1.7 c 1.8009,-0.934 4.5685,-2.462 6.1524,-3.393 z m 196.0155,-54.908 c 2.7887,-0.87 8.298,-1.679 10.1037,-1.485 0.8793,0.1 0.9638,-0.01 1.3727,-1.762 0.9139,-3.904 0.9082,-9.479 -0.019,-17.27 -0.4752,-4.005 -0.9657,-8.315 -1.0895,-9.576 l -0.2266,-2.295 -2.2655,-1.323 c -1.247,-0.729 -2.6774,-1.427 -3.1804,-1.553 -0.503,-0.126 -1.0118,-0.388 -1.1318,-0.582 -0.1497,-0.242 0.9773,-0.278 3.5845,-0.112 l 3.8034,0.241 -0.1104,-0.768 c -0.1382,-0.959 -1.0396,-1.226 -4.2929,-1.27 -2.6198,-0.04 -4.5618,0.58 -5.1003,1.619 -0.1565,0.301 -0.3917,1.462 -0.5223,2.58 -0.3446,2.939 -1.8921,7.319 -4.2421,12.008 -3.5441,7.069 -4.7681,10.813 -5.2663,16.1 -0.1968,2.094 0.2438,7.19 0.7315,8.461 0.1324,0.345 0.7756,0.138 2.6053,-0.839 1.3363,-0.713 3.6959,-1.691 5.2434,-2.174 z m 12.7359,-47.336 c 0.2074,-1.296 0.1402,-1.488 -0.7737,-2.203 -0.5511,-0.431 -1.6176,-1.76 -2.3711,-2.952 -1.2326,-1.953 -1.9104,-2.649 -4.7845,-4.925 l -0.8467,-0.67 h 2.2962 c 2.4067,-0.01 5.5477,0.833 7.6519,2.059 0.6288,0.367 1.1923,0.617 1.2518,0.558 0.2659,-0.266 0.7277,-2.986 0.527,-3.11 -0.4723,-0.292 -11.3679,-3.547 -11.484,-3.431 -0.2227,0.223 -2.7782,10.825 -2.9827,12.378 l -0.2015,1.525 h 3.333 c 3.0536,0 3.5182,0.09 5.5342,1.073 1.2114,0.589 2.2962,1.085 2.4124,1.1 0.1161,0.02 0.3129,-0.611 0.4377,-1.392 z m 0.6729,-21.977 c 1.6061,-0.03 1.4544,-0.1 -2.1676,-0.986 -2.1426,-0.525 -3.9128,-0.931 -3.9339,-0.902 -0.019,0.03 -0.2122,0.387 -0.4234,0.794 -0.7564,1.455 -0.5577,1.576 2.207,1.342 1.4246,-0.121 3.3676,-0.232 4.3179,-0.248 z m 5.5861,-6.961 c 0.2275,-2.354 0.2899,-4.404 0.1373,-4.558 -0.1527,-0.153 -1.247,-0.525 -2.4326,-0.829 -2.1369,-0.548 -3.4204,-0.497 -5.7128,0.229 -1.5503,0.49 -1.4447,1.309 0.169,1.316 1.7529,0.01 2.5295,0.528 1.2172,0.816 -1.8537,0.407 -3.0517,1.405 -3.5931,2.995 l -0.5136,1.507 2.757,0.212 c 2.207,0.17 3.1967,0.439 4.9582,1.351 1.2115,0.626 2.2905,1.162 2.4,1.191 0.1084,0.03 0.3849,-1.875 0.6134,-4.23 z m -102.3535,-21.881 c -0.096,-0.232 -0.1709,-0.04 -0.1709,0.424 0,0.465 0.077,0.656 0.1709,0.423 0.096,-0.232 0.096,-0.613 0,-0.847 z m 0.3388,-2.709 c -0.096,-0.233 -0.1709,-0.04 -0.1709,0.424 0,0.465 0.077,0.655 0.1709,0.423 0.096,-0.233 0.096,-0.613 0,-0.847 z m 0.3389,-1.693 c -0.096,-0.232 -0.1709,-0.04 -0.1709,0.423 0,0.466 0.077,0.657 0.1709,0.424 0.096,-0.233 0.096,-0.614 0,-0.847 z m 0.3389,-1.693 c -0.096,-0.233 -0.1709,-0.04 -0.1709,0.423 0,0.466 0.077,0.657 0.1709,0.423 0.096,-0.232 0.096,-0.613 0,-0.846 z m 39.9826,-12.863 c -0.077,-0.609 -0.1392,-0.192 -0.1412,0.925 0,1.118 0.058,1.616 0.1373,1.107 0.077,-0.509 0.077,-1.423 0,-2.032 z m 13.1928,1.709 c -0.1075,-0.271 -0.1882,-0.19 -0.2045,0.204 -0.01,0.357 0.067,0.557 0.1776,0.445 0.1133,-0.113 0.1248,-0.405 0.029,-0.649 z m 53.0506,-2.054 c -0.9177,-3.09 -2.4834,-5.734 -4.7211,-7.972 -2.0323,-2.033 -2.0947,-2.141 -1.1078,-1.924 1.5666,0.344 3.7016,1.356 5.2932,2.508 l 1.4198,1.03 -0.1977,-1.097 c -1.5043,-8.355 -3.5461,-13.405 -5.8789,-14.542 -1.4946,-0.73 -6.5709,-1.624 -9.2108,-1.624 -1.9267,0 -2.0016,0.03 -1.7827,0.762 0.3744,1.255 2.9721,4.385 4.987,6.009 2.2655,1.825 2.1705,2.068 -1.2345,3.138 -2.1945,0.69 -3.0863,0.759 -9.9462,0.759 -4.1442,0 -7.5348,0.04 -7.5348,0.1 0,0.187 2.4959,2.298 4.0261,3.405 4.0223,2.908 7.2986,4.016 13.7093,4.636 3.8331,0.371 5.4545,0.679 6.7879,1.289 2.1542,0.986 3.9215,2.501 4.7816,4.099 0.9398,1.745 1.2192,1.483 0.6096,-0.571 z m -53.3895,0.699 c -0.1075,-0.27 -0.1881,-0.19 -0.2045,0.205 -0.01,0.357 0.067,0.556 0.1786,0.444 0.1123,-0.113 0.1238,-0.405 0.029,-0.649 z m 9.4912,-12.209 c -0.077,-0.421 -0.1507,-0.156 -0.1546,0.589 0,0.745 0.067,1.089 0.1479,0.766 0.086,-0.325 0.086,-0.934 0,-1.355 z m 43.6314,-12.534 c -0.077,-0.233 -0.384,-1.261 -0.6921,-2.287 -0.6317,-2.105 -3.2735,-9.562 -3.478,-9.82 -0.077,-0.1 -0.3532,0.136 -0.6211,0.509 -0.2678,0.371 -1.0319,1.242 -1.6972,1.934 -0.6662,0.692 -1.1587,1.409 -1.0944,1.595 0.1056,0.303 7.4638,8.477 7.6414,8.488 0.038,0 0.01,-0.187 -0.058,-0.419 z m -36.5248,-3.55 c -0.086,-0.329 -0.1622,-0.142 -0.1689,0.417 0,0.559 0.067,0.828 0.1564,0.6 0.096,-0.23 0.098,-0.688 0.01,-1.017 z m -1.6089,-3.647 c -0.029,-0.509 -1.2969,2.631 -1.2998,3.218 0,0.279 0.2938,-0.254 0.6576,-1.186 0.3638,-0.931 0.6528,-1.846 0.6422,-2.032 z m 32.9038,-11.429 c 0.8064,-0.534 1.5984,-1.651 2.6476,-3.732 l 1.4976,-2.972 0.1564,-5.411 c 0.086,-2.976 0.2727,-5.41 0.4167,-5.41 0.143,0 0.4406,0.495 0.6604,1.1 0.3696,1.019 0.4291,1.053 0.7949,0.456 0.2179,-0.355 0.8294,-1.154 1.3602,-1.776 0.8832,-1.035 0.911,-1.148 0.3389,-1.334 -2.8895,-0.938 -3.5816,-1.65 -4.1778,-4.292 -0.8015,-3.557 -1.0098,-3.956 -2.4364,-4.684 -0.7478,-0.381 -1.413,-0.639 -1.4802,-0.572 -0.067,0.07 0.3427,1.465 0.9091,3.108 1.4246,4.132 1.6809,8.393 0.6662,11.069 -0.9609,2.535 -2.7474,4.535 -5.1186,5.731 -1.8844,0.952 -3.381,2.367 -3.381,3.195 0,0.218 -0.4636,1.126 -1.029,2.018 -1.1981,1.889 -1.0982,2.637 0.4483,3.347 1.7855,0.819 2.0101,0.866 4.34,0.894 1.7817,0.02 2.47,-0.128 3.3867,-0.735 z m 8.9392,-32.554 c 6.2744,-2.955 9.1236,-10.758 5.0005,-13.693 l -0.936,-0.668 v 3.265 c 0,2.885 -0.1046,3.462 -0.9014,4.958 -1.5887,2.985 -3.7438,4.572 -6.211,4.572 -1.7673,0 -2.9135,-0.585 -4.5252,-2.309 l -1.4813,-1.586 0.2343,1.864 c 0.3475,2.765 0.4607,2.997 1.8181,3.714 1.8057,0.954 4.8373,0.904 7.002,-0.117 z m -3.0911,-15.112 c 0.5818,-1.208 1.2576,-1.05 2.1744,0.508 l 0.7967,1.354 -0.1536,-1.622 c -0.1795,-1.897 -0.9878,-2.949 -2.2655,-2.949 -1.3487,0 -2.1436,1.076 -2.1167,2.862 0.029,1.928 0.4301,2.646 0.8496,1.52 0.1689,-0.455 0.4905,-1.208 0.7151,-1.673 z m 27.6711,124.089 c 0.019,-0.395 0.096,-0.474 0.2044,-0.205 0.098,0.245 0.086,0.537 -0.029,0.649 -0.1123,0.113 -0.1929,-0.09 -0.1776,-0.444 z m 0.3379,-1.355 c 0.019,-0.394 0.097,-0.475 0.2054,-0.204 0.098,0.245 0.086,0.536 -0.029,0.649 -0.1123,0.112 -0.1929,-0.09 -0.1785,-0.445 z m 25.4266,-31.635 c 0,-0.466 0.077,-0.657 0.1709,-0.424 0.096,0.233 0.096,0.614 0,0.847 -0.096,0.232 -0.1709,0.04 -0.1709,-0.423 z m -123.9806,-11.539 c -1.5715,-0.354 -3.0018,-0.79 -3.1794,-0.967 -0.3984,-0.399 3.19,-7.75 6.4913,-13.294 1.9573,-3.289 8.6051,-13.311 10.383,-15.653 0.4694,-0.619 0.5779,-0.584 2.7839,0.884 1.2623,0.841 2.6399,1.708 3.0594,1.928 0.7065,0.368 0.7286,0.468 0.2947,1.316 -1.0396,2.033 -3.2936,9.403 -4.1135,13.45 -0.478,2.366 -0.9906,5.966 -1.1375,8.003 -0.1479,2.038 -0.407,3.834 -0.5779,3.992 -0.4522,0.421 -4.46,1.043 -6.7246,1.043 h -1.9574 l 0.2372,-1.27 c 0.8687,-4.653 7.0653,-18.626 11.4236,-25.756 0.3763,-0.616 0.6086,-1.194 0.5164,-1.286 -0.1977,-0.198 -2.2665,3.05 -4.2267,6.637 -2.3481,4.295 -5.3547,11.438 -7.0193,16.679 -1.8297,5.761 -1.3151,5.407 -6.2532,4.294 z m -8.8259,-2.837 c -3.2092,-1.283 -5.7176,-2.031 -8.417,-2.51 -2.1158,-0.377 -3.9292,-0.766 -4.0309,-0.868 -0.6902,-0.69 11.0991,-13.421 17.768,-19.186 4.3102,-3.726 11.51,-9.46 11.8594,-9.445 0.144,0.01 0.6269,0.315 1.0733,0.687 l 0.8111,0.676 -0.7267,0.774 c -0.4003,0.425 -0.7267,0.887 -0.7267,1.025 0,0.138 0.3572,-0.165 0.7939,-0.673 l 0.7949,-0.924 1.5763,1.132 c 1.5455,1.109 1.9189,1.78 1.2297,2.206 -0.8602,0.532 -7.1249,9.759 -10.2909,15.156 -1.0665,1.82 -3.0795,5.667 -4.4734,8.552 -1.3939,2.884 -2.5641,5.239 -2.6015,5.235 -0.038,0 -2.1254,-0.832 -4.6395,-1.837 z m -35.0503,-3.1 c -1.8816,-0.449 -9.1571,-2.751 -9.7379,-3.08 -0.3072,-0.174 1.8114,-2.798 2.2655,-2.806 0.1747,0 1.2192,0.703 2.3212,1.568 1.102,0.865 3.3215,2.313 4.9323,3.216 1.6099,0.904 2.7753,1.63 2.589,1.616 -0.1862,-0.02 -1.2527,-0.247 -2.3701,-0.514 z m 12.4469,-2.495 c -8.4448,-2.134 -10.0125,-2.783 -13.5317,-5.6 l -2.1014,-1.682 0.7469,-0.8 c 3.5375,-3.793 16.2493,-12.206 23.2657,-15.397 2.0745,-0.943 2.3779,-0.99 5.2491,-0.801 2.7311,0.18 5.2799,0.692 7.0577,1.42 0.5453,0.223 0.5155,0.05 -0.2409,-1.401 -0.4752,-0.911 -1.1904,-2.153 -1.5897,-2.761 l -0.7258,-1.104 4.0146,-1.857 c 2.2079,-1.022 4.9294,-2.318 6.0468,-2.88 3.6047,-1.814 0.5299,-0.658 -4.722,1.776 -2.8041,1.299 -5.4181,2.435 -5.8078,2.525 -0.7728,0.178 -9.6352,-4.233 -15.6331,-7.782 -15.9546,-9.439 -25.0628,-22.615 -26.9798,-39.027 -0.1536,-1.316 -0.048,-2.003 0.4751,-3.025 0.8563,-1.68 0.6528,-1.945 -0.3052,-0.395 -2.0179,3.265 -11.4755,10.127 -17.8324,12.938 -2.5016,1.107 -2.3212,0.736 0.2803,-0.575 6.5566,-3.304 15.8692,-10.834 19.2186,-15.537 l 0.7967,-1.12 -0.9906,0.258 c -4.2709,1.106 -7.4523,1.531 -11.4899,1.531 h -4.4024 l 3.7256,-1.842 c 4.1365,-2.047 6.8801,-4.256 9.2032,-7.412 0.8055,-1.094 1.464,-2.128 1.464,-2.298 0,-0.168 -0.5808,0 -1.2902,0.351 -2.183,1.113 -5.778,1.882 -8.1924,1.752 -0.6787,-0.04 -0.407,-0.28 1.3661,-1.226 3.1314,-1.671 6.0641,-4.15 8.0742,-6.826 0.9514,-1.267 1.7309,-2.414 1.7328,-2.549 0,-0.135 -0.3878,-0.1 -0.8659,0.09 -1.152,0.438 -3.7554,0.419 -5.972,-0.05 -2.0744,-0.433 -2.7071,-0.856 -1.7672,-1.181 0.3571,-0.124 1.5292,-0.609 2.6034,-1.078 l 1.9545,-0.851 -1.7846,-1.18 c -1.7615,-1.164 -4.3247,-3.414 -4.3247,-3.796 0,-0.108 1.5619,-0.383 3.4713,-0.612 1.9084,-0.228 3.9282,-0.547 4.4869,-0.708 l 1.0156,-0.293 -1.0137,-0.404 c -3.3148,-1.322 -4.5551,-3.497 -4.5666,-8.002 -0.01,-4.25 0.5837,-5.949 4.0885,-11.698 3.7218,-6.105 6.6574,-12.207 9.5939,-19.942 3.4146,-8.993 3.1132,-8.649 3.4185,-3.895 0.144,2.235 0.1267,7.645 -0.038,12.022 -0.1632,4.377 -0.2995,10.549 -0.3024,13.716 0,5.679 0,5.778 0.9235,7.307 0.5116,0.853 1.5532,2.052 2.3144,2.664 2.2512,1.809 2.6803,2.796 2.6812,6.17 0,5.284 2.4403,9.31 6.9396,11.457 3.0738,1.467 3.4972,1.372 2.2118,-0.497 -1.7126,-2.489 -2.9807,-5.513 -3.3906,-8.085 -0.2122,-1.333 -0.6173,-3.87 -0.9014,-5.639 -0.2832,-1.77 -1.0502,-4.79 -1.704,-6.712 -1.3814,-4.061 -1.3334,-5.042 0.3408,-7.034 2.2723,-2.701 2.6467,-3.434 2.5363,-4.961 l -0.1047,-1.444 -0.7065,1.186 c -0.3878,0.652 -1.7731,2.021 -3.0767,3.042 -1.3046,1.021 -2.6495,2.225 -2.9893,2.676 -0.8822,1.17 -1.0589,3.727 -0.3514,5.094 0.3139,0.607 0.505,1.169 0.4243,1.25 -0.3321,0.331 -1.2883,-0.347 -1.9122,-1.357 -0.6259,-1.012 -0.6739,-1.83 -0.769,-13.325 -0.077,-9.455 0,-12.342 0.3216,-12.669 0.2477,-0.249 0.4234,-0.278 0.4234,-0.08 0,1.333 0.8755,6.556 1.5254,9.096 0.4281,1.677 0.8879,3.924 1.0204,4.995 0.264,2.123 0.6029,2.354 1.9046,1.3 1.3247,-1.073 1.0531,-2.986 -0.9686,-6.826 -2.064,-3.921 -2.663,-6.794 -2.3184,-11.132 0.8055,-10.132 5.2962,-20.325 11.9862,-27.204 2.9221,-3.005 4.964,-4.427 7.217,-5.029 1.3699,-0.365 1.7827,-0.339 3.2082,0.206 2.2003,0.84 4.5032,3.072 6.9607,6.746 2.2108,3.305 3.3042,5.392 8.6215,16.456 3.0248,6.292 3.3282,7.074 2.2386,5.757 -2.5026,-3.025 -6.0622,-6.546 -8.8845,-8.791 -4.2708,-3.395 -4.8046,-3.509 -2.2031,-0.47 2.9174,3.41 6.5432,8.877 9.7926,14.764 1.4141,2.561 2.5699,4.72 2.5699,4.798 0,0.08 -1.7904,-1.642 -3.9791,-3.823 -7.1229,-7.097 -14.675,-12.011 -20.8812,-13.588 -4.0146,-1.018 -4.4293,-0.836 -1.5542,0.687 5.7042,3.021 12.4201,9.154 17.601,16.074 4.8008,6.412 5.0101,6.81 2.4057,4.572 -10.3273,-8.872 -19.0342,-12.71 -26.4461,-11.657 l -2.1964,0.312 3.3541,1.339 c 5.5294,2.207 9.7024,5.213 15.8903,11.443 2.9481,2.968 5.2856,5.472 5.1944,5.563 -0.096,0.09 -1.4255,-0.697 -2.9644,-1.751 -4.7892,-3.28 -11.269,-6.247 -15.802,-7.234 -1.9545,-0.426 -1.8105,0 0.3331,0.996 4.1183,1.905 8.7175,5.402 16.9492,12.884 6.3914,5.81 8.7395,6.939 11.2095,5.393 1.4908,-0.934 5.5477,-5.18 5.9432,-6.221 0.4598,-1.209 1.3775,-9.819 1.3775,-12.919 v -2.559 l 3.4713,3.425 c 1.9093,1.884 5.2673,4.781 7.4618,6.439 3.9147,2.957 5.2107,3.679 4.2632,2.374 -0.2554,-0.352 -1.9046,-2.599 -3.6642,-4.995 -6.3415,-8.634 -10.6921,-15.748 -19.6467,-32.126 -7.8583,-14.373 -9.0688,-16.07 -12.7128,-17.819 -2.4095,-1.157 -3.8917,-1.221 -6.4164,-0.276 -3.0796,1.152 -5.8808,3.25 -10.3465,7.754 -4.5359,4.572 -7.962,8.955 -11.3996,14.585 -1.1808,1.934 -2.1465,3.358 -2.1465,3.165 0,-0.66 1.7625,-4.704 3.7755,-8.659 4.5867,-9.013 11.6857,-16.828 17.9264,-19.733 2.4595,-1.144 4.9285,-1.147 7.3755,0 3.6113,1.68 5.2846,3.678 9.375,11.189 5.7271,10.518 10.5702,18.792 15.3758,26.268 l 1.4409,2.242 4.2833,0.189 c 2.9366,0.129 5.4018,0.466 7.8401,1.071 1.9554,0.486 4.0885,0.965 4.7403,1.066 l 1.1856,0.183 -1.8624,-1.699 c -1.0243,-0.934 -2.7733,-2.242 -3.8869,-2.904 -1.1135,-0.663 -1.9458,-1.205 -1.8498,-1.205 0.8063,0 17.936,6.209 19.6274,7.115 1.4937,0.799 1.4237,0.05 -0.1507,-1.635 -1.7615,-1.884 -1.6098,-2.08 0.9322,-1.215 1.031,0.352 1.9986,1.023 2.7647,1.918 l 1.1798,1.379 6.8628,-2.914 c 3.7736,-1.604 11.5858,-4.994 17.36,-7.535 13.5509,-5.963 18.5283,-7.985 24.553,-9.976 8.1934,-2.708 10.433,-2.915 11.8729,-1.094 1.5206,1.923 0.1718,5.9 -4.5598,13.449 -1.6339,2.608 -4.4255,7.674 -6.2024,11.26 l -3.2303,6.519 h -2.4114 c -3.3138,0 -6.3924,0.722 -10.7411,2.487 -2.0284,0.825 -3.62,1.388 -3.5355,1.252 0.3629,-0.586 7.6903,-5.492 10.0806,-6.747 1.4399,-0.757 4.1451,-1.85 6.0113,-2.43 1.8662,-0.58 3.3925,-1.182 3.3925,-1.336 0,-0.156 -1.3334,-0.396 -2.9634,-0.535 -4.1183,-0.352 -7.3985,0.353 -11.7682,2.532 -1.8624,0.929 -4.1864,2.221 -5.1646,2.872 -0.9773,0.65 -1.7779,1.058 -1.7779,0.906 0,-0.153 1.4899,-1.707 3.309,-3.454 3.2841,-3.152 6.2158,-5.045 9.3914,-6.065 2.5698,-0.826 0.6259,-0.675 -2.3241,0.179 -3.2937,0.955 -6.1966,2.323 -9.0871,4.284 -1.0607,0.72 -2.0207,1.308 -2.133,1.308 -0.3014,0 1.6655,-2.773 2.4978,-3.523 1.0617,-0.956 0.8698,-1.314 -0.3638,-0.676 -1.8191,0.941 -4.5627,3.791 -5.3019,5.507 -0.958,2.229 -1.4006,5.299 -1.4035,9.737 v 3.764 l 1.5139,0.578 c 1.6732,0.64 3.0105,2.023 3.9474,4.086 l 0.6153,1.354 -0.067,-1.604 c -0.058,-1.449 0.067,-1.735 1.2787,-2.983 1.3008,-1.336 6.7735,-4.386 7.8688,-4.386 0.2919,0 0.433,-0.1 0.3139,-0.217 -0.3244,-0.325 -3.0776,0.496 -6.568,1.959 -3.1353,1.313 -5.3682,1.7 -5.0984,0.882 0.2918,-0.886 6.0017,-4.361 9.8982,-6.025 3.9599,-1.69 9.8819,-3.603 10.192,-3.293 0.086,0.09 -0.2122,0.985 -0.6605,1.999 -1.6579,3.747 -2.2415,6.286 -2.2415,9.745 0,2.1 -0.1527,3.491 -0.4234,3.855 -0.4473,0.601 -5.6167,3.963 -6.0938,3.963 -0.5741,0 0.4713,-1.343 2.3634,-3.037 l 1.9526,-1.748 -2.2012,1.084 c -1.2105,0.597 -3.0393,1.723 -4.0636,2.503 -2.5957,1.975 -3.1573,2.19 -1.3545,0.517 l 1.5235,-1.414 -2.2559,1.217 c -1.2413,0.669 -2.351,1.217 -2.4671,1.217 -0.4013,0 0.4367,-1.196 2.6696,-3.81 1.2336,-1.444 2.1244,-2.623 1.9785,-2.622 -1.3564,0.02 -9.8051,6.965 -8.8173,7.252 2.9164,0.847 5.2683,1.265 6.3262,1.123 l 1.2931,-0.174 -0.3667,0.974 c -0.5923,1.568 0.12,1.972 1.8095,1.023 l 1.3612,-0.765 -0.3916,0.86 c -0.4416,0.969 -0.048,1.712 1.0924,2.075 1.1961,0.38 0.6624,1.489 -2.1542,4.473 -1.5407,1.632 -3.9646,4.416 -5.3882,6.185 -1.4227,1.769 -3.1468,3.75 -3.8313,4.402 -1.5964,1.521 -2.0985,2.509 -3.0843,6.069 -1.0426,3.769 -1.0445,3.753 0.3993,3.753 h 1.2105 l -0.7344,0.931 c -0.4031,0.512 -1.5196,2.15 -2.4805,3.64 l -1.7471,2.709 -0.1037,-1.636 c -0.058,-0.9 0.1325,-3.466 0.4233,-5.704 0.5654,-4.36 0.721,-13.486 0.2295,-13.486 -0.1632,0 -0.4608,0.418 -0.6615,0.931 -0.1996,0.511 -1.533,3.902 -2.9624,7.535 -2.3731,6.029 -4.2056,11.028 -4.2056,11.468 0,0.1 0.2236,-0.121 0.4972,-0.483 0.769,-1.016 0.7411,-0.864 -1.725,9.503 -0.6883,2.893 -2.8751,8.297 -3.358,8.297 -0.2342,0 -0.5049,-0.735 -0.6364,-1.729 -0.3024,-2.277 -1.3526,-5.003 -3.8361,-9.955 -1.1212,-2.234 -2.2837,-4.673 -2.5842,-5.418 -0.5213,-1.294 -0.5193,-1.323 0.048,-0.659 0.3245,0.383 0.862,1.068 1.1923,1.524 0.5136,0.707 0.5808,0.729 0.4521,0.151 -0.336,-1.506 -3.7151,-12.457 -5.036,-16.313 -1.6127,-4.713 -1.6453,-4.486 1.0877,-7.566 l 1.6482,-1.859 0.4061,1.016 c 1.5244,3.822 4.1864,11.674 4.8219,14.224 l 0.7593,3.048 0.2103,-2.54 c 0.3264,-3.957 0.3168,-10.304 -0.019,-14.396 -0.311,-3.753 -1.9017,-11.912 -2.4393,-12.51 -0.1632,-0.182 -0.3081,0.93 -0.3312,2.54 -0.019,1.573 -0.1382,3.928 -0.2544,5.232 l -0.2121,2.371 -0.7766,-4.573 c -0.4272,-2.514 -1.4467,-6.933 -2.2646,-9.82 -1.4323,-5.051 -1.8652,-5.472 -1.2192,-1.186 0.168,1.118 0.3898,3.022 0.4925,4.234 0.1546,1.833 0.1248,2.031 -0.1795,1.184 -2.5996,-7.221 -4.0635,-9.963 -5.108,-9.562 -0.4531,0.174 -0.2861,0.995 1.1606,5.729 1.8969,6.207 4.3016,13.818 4.5272,14.332 0.086,0.186 -0.912,1.558 -2.2098,3.047 -2.0707,2.378 -5.0735,7.052 -4.172,6.497 0.2092,-0.13 0.407,2.361 0.5385,6.768 0.1728,5.798 0.1229,7.139 -0.2947,7.946 -0.5856,1.133 -0.7536,1.179 -1.3862,0.379 -1.6511,-2.086 -2.949,-5.504 -4.8862,-12.869 -0.7478,-2.842 -1.5801,-5.695 -1.8508,-6.342 -0.4426,-1.061 -0.4263,-1.42 0.1727,-3.64 2.2905,-8.49 3.7612,-22.638 3.1257,-30.063 l -0.3043,-3.557 -0.048,5.419 c -0.077,7.635 -1.5235,19.901 -3.2226,27.261 l -0.4301,1.864 -1.2767,-4.065 c -2.3616,-7.519 -4.5167,-11.561 -8.2673,-15.505 -2.1983,-2.312 -6.4903,-5.743 -6.4903,-5.189 0,0.1 0.648,0.621 1.44,1.168 2.0178,1.396 5.4746,4.921 7.2362,7.382 2.9922,4.176 6.3098,12.422 6.7956,16.888 0.2035,1.872 -0.7814,5.812 -2.0035,8.008 -0.8783,1.582 -0.6921,2.144 2.2876,6.891 1.2432,1.98 2.2022,3.659 2.1302,3.731 -0.067,0.07 -1.4198,-0.649 -2.997,-1.6 -4.5387,-2.739 -9.3827,-5.215 -12.7129,-6.498 -3.1554,-1.217 -10.6057,-3.403 -10.8303,-3.177 -0.1354,0.134 4.5243,4.278 9.5929,8.531 3.8054,3.193 3.9676,3.415 2.2512,3.094 -2.6659,-0.5 -6.8983,-2.032 -12.6706,-4.582 -6.426,-2.841 -8.1895,-3.394 -10.8256,-3.394 -0.9657,0 -2.7906,-0.375 -4.1662,-0.855 -1.6396,-0.573 -2.7839,-0.784 -3.4655,-0.64 -0.7872,0.166 -18.6358,7.402 -22.013,8.924 -1.0089,0.455 1.4467,0.06 5.1637,-0.829 1.7231,-0.412 3.1333,-0.702 3.1333,-0.643 0,0.292 -5.1982,3.41 -8.1741,4.902 -4.6338,2.326 -9.0851,3.781 -11.7212,3.832 -1.7203,0.03 -2.013,0.116 -1.5705,0.443 0.742,0.551 3.5432,1.121 5.5035,1.121 2.5161,0 4.7547,-0.827 11.8863,-4.393 11.7519,-5.877 16.1207,-7.093 23.402,-6.508 3.4799,0.279 5.0562,0.608 9.089,1.892 7.4685,2.378 8.7856,2.575 17.2429,2.575 10.2918,0 11.9967,0.399 15.1425,3.544 1.9958,1.994 3.9273,5.604 6.7841,12.678 1.0838,2.683 2.3356,5.312 2.782,5.843 0.7468,0.888 0.9945,0.963 3.1516,0.963 1.2873,0 2.3404,0.05 2.3404,0.116 0,0.07 -1.1261,1.273 -2.5017,2.69 -1.3766,1.417 -3.1919,3.614 -4.0348,4.881 -0.8438,1.267 -1.9093,2.656 -2.3682,3.087 -1.1241,1.053 -3.3455,1.675 -6.9213,1.939 l -2.9692,0.22 1.6127,-1.417 c 2.9942,-2.629 6.0574,-7.616 6.4875,-10.563 0.1824,-1.25 0.086,-1.873 -0.4541,-2.932 -0.3773,-0.74 -0.8774,-1.408 -1.1107,-1.486 -0.2332,-0.08 -1.485,0.136 -2.78,0.476 -7.4446,1.955 -14.3352,-0.918 -17.4676,-7.281 -1.1433,-2.321 -2.1762,-7.169 -1.9065,-8.946 l 0.1661,-1.097 -1.248,0.852 c -2.7128,1.854 -8.056,2.717 -11.6511,1.882 -1.1932,-0.278 -1.294,-0.234 -1.9266,0.838 l -0.6672,1.131 2.9423,1.586 c 6.7188,3.621 10.1939,5.992 17.9936,12.277 5.6177,4.527 8.1088,5.939 11.5542,6.545 l 2.1561,0.38 -1.3392,1.159 c -2.9567,2.555 -8.2711,4.704 -14.1701,5.729 -3.1371,0.545 -5.1358,0.537 -19.7743,-0.09 -3.0805,-0.131 -5.8376,-0.06 -7.6154,0.202 -3.2294,0.473 -9.9443,2.436 -11.7289,3.429 -0.6739,0.376 -0.9216,0.575 -0.5491,0.445 2.6111,-0.92 6.4875,-1.918 8.6359,-2.223 2.5842,-0.368 7.8093,-0.179 9.6515,0.349 l 1.0166,0.291 -0.8467,0.206 c -0.4656,0.113 -1.8374,0.368 -3.0479,0.568 -1.822,0.3 -6.4347,1.589 -6.4347,1.8 0,0.03 1.7635,0 3.9186,-0.07 3.7928,-0.121 6.9185,0.333 6.9185,1.003 0,0.353 -1.9977,1.395 -5.588,2.914 -1.4898,0.631 -2.3279,1.055 -1.8623,0.942 2.2031,-0.534 5.6312,-1.062 6.0113,-0.925 0.2323,0.09 1.0406,0.936 1.7961,1.894 0.7555,0.958 2.9519,3.351 4.8805,5.317 l 3.5077,3.574 -1.7366,1.167 c -2.5449,1.71 -11.0665,8.864 -14.938,12.54 -3.5423,3.364 -8.6234,9.07 -11.5004,12.914 -1.1577,1.548 -1.943,2.292 -2.4047,2.28 -0.3773,0 -4.2287,-0.911 -8.5581,-2.005 z m 31.916,-25.581 c 4.7854,-3.524 4.8219,-3.554 4.3429,-3.554 -0.2016,0 -1.9891,1.158 -3.9724,2.572 -4.0597,2.895 -10.1007,8.527 -13.1438,12.251 -1.5225,1.863 -0.6893,1.141 3.3407,-2.897 3.4328,-3.439 6.8349,-6.459 9.4326,-8.372 z m -9.1811,-6.391 c 3.7525,-1.125 4.8852,-1.565 4.0328,-1.565 -0.48,0 -7.5146,2.201 -8.5667,2.681 -1.2067,0.55 -0.1757,0.296 4.5339,-1.116 z m 24.7105,-19.37 c 1.1443,-0.294 2.206,-0.655 2.3577,-0.803 0.1526,-0.147 -0.9139,-0.343 -2.3702,-0.434 -4.2008,-0.265 -8.249,-1.881 -18.0723,-7.216 -6.1889,-3.36 -8.5543,-4.369 -12.6841,-5.409 l -3.0479,-0.768 1.5245,-0.689 c 4.148,-1.873 9.8799,-2.221 15.0705,-0.913 0.9638,0.242 0.9206,0.157 -0.8467,-1.665 -5.8203,-6.002 -12.302,-6.458 -18.439,-1.297 -6.835,5.747 -9.6304,7.476 -13.6028,8.412 -3.2159,0.759 -6.928,0.474 -10.5442,-0.806 -1.5369,-0.544 -2.7945,-0.866 -2.7945,-0.716 0,0.929 4.8488,3.488 8.0407,4.243 2.8444,0.673 8.656,0.449 14.1412,-0.545 4.6405,-0.84 5.1896,-0.83 3.0479,0.06 -5.2865,2.184 -12.7714,3.758 -17.9485,3.776 h -3.7246 l 1.6934,0.739 c 3.1419,1.372 6.0669,1.898 10.4857,1.886 4.6299,-0.01 7.6778,-0.534 12.229,-2.087 5.1502,-1.759 8.7414,-1.385 17.7594,1.845 3.8869,1.393 6.9962,2.303 9.1379,2.675 2.062,0.358 6.6573,0.201 8.5869,-0.294 z m 11.7327,-22.979 c 0,-0.829 0.7824,-1.886 1.3939,-1.886 0.4089,0 1.749,1.317 2.2482,2.209 0.6326,1.13 0.8505,0.285 0.2525,-0.977 -0.7027,-1.481 -1.9219,-2.308 -3.4665,-2.352 -1.8873,-0.06 -2.805,1.834 -1.5609,3.209 0.7632,0.843 1.1328,0.778 1.1328,-0.203 z m 9.4825,-16.788 c 0.3802,-0.745 0.6144,-1.355 0.5213,-1.355 -0.096,0 -0.48,0.61 -0.8601,1.355 -0.3802,0.745 -0.6144,1.354 -0.5213,1.354 0.096,0 0.48,-0.609 0.8601,-1.354 z m 22.3768,-2.738 c 0.7594,-2.126 1.8969,-5.999 2.5296,-8.607 1.126,-4.647 3.0776,-16.662 2.7579,-16.981 -0.086,-0.09 -0.8812,2.064 -1.7615,4.786 -0.8803,2.72 -1.6425,4.901 -1.6943,4.846 -0.048,-0.06 0.048,-1.549 0.2227,-3.318 0.1756,-1.777 0.2073,-5.796 0.067,-8.975 l -0.2458,-5.757 -0.4262,3.387 c -0.2352,1.862 -0.4502,4.301 -0.479,5.418 -0.086,3.407 -0.5031,4.107 -0.8045,1.355 -0.3868,-3.546 -1.5474,-9.78 -1.8825,-10.116 -0.4464,-0.45 -2.1167,1.38 -1.8978,2.079 0.4214,1.348 1.5407,9.038 1.9343,13.286 0.4809,5.195 0.5942,16.533 0.2016,20.299 -0.144,1.386 -0.1824,2.44 -0.086,2.342 0.098,-0.1 0.7997,-1.918 1.558,-4.044 z m -22.8884,-10.3 c 0.6883,-4.768 1.7125,-9.807 2.372,-11.678 0.2842,-0.807 0.4493,-1.534 0.3658,-1.617 -0.086,-0.09 -0.5366,1.121 -1.008,2.677 -1.5081,4.985 -3.285,16.641 -3.2072,21.049 0.038,2.13 0.099,1.86 0.4915,-2.134 0.2467,-2.514 0.6902,-6.248 0.9859,-8.297 z m -9.0784,5.524 c -0.1076,-0.269 -0.1882,-0.19 -0.2045,0.205 -0.01,0.357 0.067,0.557 0.1776,0.444 0.1133,-0.112 0.1248,-0.404 0.029,-0.649 z m -40.8956,-7.098 c -1.4764,-2.933 -2.1253,-4.695 -1.7289,-4.685 0.1268,0 1.3632,0.686 2.7475,1.518 1.3842,0.834 2.5535,1.477 2.5996,1.431 0.048,-0.05 -0.5059,-1.301 -1.2269,-2.789 -2.1724,-4.485 -2.1081,-4.604 1.0272,-1.895 2.6524,2.292 7.7901,5.899 8.0426,5.647 0.067,-0.07 -1.3776,-1.622 -3.2053,-3.458 -4.4274,-4.445 -7.7249,-8.619 -10.4694,-13.252 -1.2442,-2.099 -2.3145,-3.764 -2.3788,-3.699 -0.067,0.07 0.263,2.282 0.7267,4.926 0.4636,2.646 0.8438,4.969 0.8438,5.162 0,0.194 -0.7997,-0.705 -1.7779,-1.995 -2.1158,-2.792 -4.9573,-5.977 -5.156,-5.778 -0.2332,0.233 1.7404,7.895 2.327,9.028 0.7852,1.518 0.7017,1.58 -0.8966,0.649 -1.8902,-1.102 -6.2705,-2.952 -6.978,-2.947 -0.3658,0 -0.1507,0.32 0.6288,0.93 1.1414,0.892 5.3825,4.623 12.6418,11.123 1.894,1.696 3.4914,3.046 3.5499,2.999 0.058,-0.05 -0.5347,-1.359 -1.3171,-2.915 z m 10.5386,-11.295 c 0.01,-0.931 0.1449,-2.303 0.2908,-3.048 l 0.2659,-1.354 0.3917,0.953 c 0.216,0.524 0.3917,1.1 0.3917,1.28 0,0.635 2.0802,4.436 2.3048,4.21 0.1258,-0.125 0.3063,-1.585 0.4013,-3.243 l 0.1728,-3.016 1.6934,2.183 c 2.6725,3.446 2.9548,3.199 2.0601,-1.803 l -0.4445,-2.482 1.7318,1.682 c 1.9746,1.918 3.26,2.719 3.2485,2.025 0,-0.239 -0.3245,-1.121 -0.7113,-1.959 -1.0512,-2.278 -1.9584,-5.133 -1.5235,-4.797 0.2093,0.161 1.391,1.078 2.6265,2.037 1.2355,0.959 2.3433,1.744 2.4623,1.744 0.1181,0 -0.086,-0.588 -0.4522,-1.308 -0.5961,-1.167 -3.8254,-4.449 -4.3784,-4.449 -0.119,0 -0.8466,0.732 -1.6156,1.625 -1.5676,1.82 -4.6337,3.602 -6.809,3.957 -0.7891,0.128 -1.4745,0.195 -1.5235,0.147 -0.3245,-0.311 -1.7529,0.956 -2.1503,1.907 -0.6595,1.577 -0.5894,3.095 0.2227,4.886 0.8313,1.833 1.3065,1.417 1.344,-1.177 z m 68.9563,-18.617 c 1.6338,-2.626 1.7768,-3.076 0.814,-2.56 -0.9513,0.508 -1.2748,0.435 -1.4764,-0.335 -0.7901,-3.021 4.3093,-7.922 13.8158,-13.278 1.4899,-0.84 6.138,-3.315 10.3283,-5.5 4.1912,-2.185 8.1251,-4.454 8.7424,-5.039 1.1616,-1.104 3.309,-4.537 3.0191,-4.828 -0.096,-0.09 -1.894,0.472 -4.0079,1.25 -15.178,5.585 -31.5502,15.739 -34.6269,21.476 -0.6134,1.143 -0.7257,1.911 -0.7181,4.911 0,3.036 0.121,3.769 0.7795,5.016 0.4992,0.944 0.9638,1.423 1.3161,1.355 0.2996,-0.06 1.2067,-1.169 2.0141,-2.468 z m -31.4764,-5.173 c -0.077,-0.512 -0.1411,-0.1 -0.1411,0.931 0,1.024 0.067,1.443 0.1411,0.931 0.077,-0.512 0.077,-1.35 0,-1.862 z m -7.5261,118.313 c -0.9302,-0.631 -2.1475,-1.633 -2.7062,-2.227 -0.9139,-0.969 -0.7843,-0.922 1.2969,0.472 1.272,0.851 2.688,1.642 3.1468,1.757 0.7949,0.2 0.9561,0.812 0.2726,1.041 -0.1756,0.06 -1.0809,-0.411 -2.0101,-1.043 z m 9.3405,-8.211 c -0.8823,-1.122 -0.8899,-1.968 -0.029,-2.833 1.3343,-1.333 3.3867,-0.46 3.3867,1.441 0,0.893 -1.3535,2.284 -2.2223,2.284 -0.241,0 -0.7536,-0.402 -1.1395,-0.892 z m -5.5602,-1.759 c -1.3382,-1.479 -0.058,-3.875 1.7347,-3.244 0.5068,0.177 1.1241,0.746 1.3718,1.265 0.3878,0.807 0.3744,1.059 -0.096,1.77 -0.6605,1.007 -2.1964,1.114 -3.0153,0.209 z m -5.226,-1.263 c -1.4553,-1.019 -0.6029,-3.537 1.1961,-3.537 0.9667,0 2.1868,1.597 1.917,2.509 -0.4406,1.493 -1.8066,1.944 -3.1131,1.028 z m -9.5815,-3.155 c 0.7229,-1.35 2.8377,-3.176 4.6271,-3.995 3.8926,-1.783 6.9021,-1.682 13.0066,0.433 3.5355,1.225 6.2061,1.586 7.7047,1.042 1.0348,-0.377 0.957,0.06 -0.2794,1.554 -0.9072,1.101 -1.2259,1.262 -2.5007,1.262 -0.8035,0 -2.7359,-0.383 -4.2939,-0.85 -6.4856,-1.947 -8.1636,-2.277 -10.6211,-2.089 -2.9145,0.223 -5.012,0.946 -6.7246,2.32 -1.0617,0.851 -1.2335,0.912 -0.9187,0.323 z m -85.3208,-19.956 c 2.0591,-1.405 7.4695,-5.661 9.4009,-7.397 2.3097,-2.075 2.6409,-2.02 1.1558,0.192 -2.1608,3.217 -5.3383,5.74 -9.1206,7.241 -1.8326,0.727 -2.5305,0.71 -1.4361,-0.04 z m 115.3025,-10.497 c -0.01,-4.473 -0.4838,-8.323 -1.3939,-11.371 -0.1296,-0.434 -0.067,-0.557 0.2122,-0.387 0.7085,0.438 4.6846,8.896 5.083,10.811 0.2112,1.018 0.337,2.577 0.2794,3.467 -0.1027,1.592 -0.1248,1.622 -1.4582,1.883 -0.745,0.147 -1.6598,0.337 -2.0323,0.422 -0.6527,0.151 -0.6777,-0.02 -0.6902,-4.825 z m 12.4105,4.388 c -0.7987,-0.113 -0.8064,-0.151 -0.5962,-2.878 0.3869,-5.025 1.7606,-8.896 4.1442,-11.68 0.6806,-0.795 1.3065,-1.376 1.391,-1.292 0.086,0.09 -0.384,0.968 -1.0406,1.964 -1.5043,2.281 -2.4758,5.877 -2.8204,10.445 -0.263,3.494 -0.2822,3.554 -1.078,3.441 z m -135.5886,-1.79 c 0.2295,-0.231 0.5031,-0.335 0.6067,-0.231 0.1047,0.104 -0.086,0.294 -0.4176,0.421 -0.4828,0.184 -0.5212,0.145 -0.1891,-0.19 z m 167.8722,-5.122 -0.9945,-1.1 1.1001,0.994 c 1.0262,0.927 1.2566,1.207 0.9945,1.207 -0.058,0 -0.5529,-0.496 -1.1001,-1.101 z m 19.2925,0 -0.6451,-0.762 0.7622,0.645 c 0.7161,0.606 0.9158,0.879 0.6451,0.879 -0.067,0 -0.407,-0.343 -0.7622,-0.762 z m -4.5138,-4.508 c -4.4091,-3.994 -8.3863,-6.82 -13.4578,-9.563 -5.1838,-2.804 -7.1037,-3.255 -12.7291,-2.983 -2.375,0.114 -4.3179,0.106 -4.3179,-0.02 0,-0.126 0.4569,-1.039 1.0156,-2.029 0.5587,-0.989 1.0166,-1.962 1.0166,-2.16 0,-0.198 -0.648,0.08 -1.4399,0.615 -2.2406,1.518 -2.5737,1.585 -1.1002,0.223 2.6764,-2.475 7.2967,-4.073 14.6654,-5.07 2.1782,-0.295 4.4936,-0.641 5.1455,-0.771 1.678,-0.332 7.3658,0.14 11.2748,0.938 9.7071,1.979 17.9091,6.266 24.5933,12.852 1.8125,1.786 2.6745,2.701 1.9161,2.035 -5.9134,-5.197 -11.486,-8.706 -17.9725,-11.318 -5.0321,-2.024 -8.3315,-2.764 -18.199,-4.073 l -1.2662,-0.168 -2.5641,5.119 c -1.4102,2.816 -2.517,5.147 -2.4584,5.179 0.058,0.03 1.0905,0.511 2.2952,1.064 3.0345,1.393 7.4014,4.302 11.0166,7.339 2.7426,2.304 6.6507,6.059 6.2523,6.008 -0.086,-0.01 -1.7443,-1.46 -3.6863,-3.218 z m -20.166,-1.761 c -2.6159,-2.438 -4.3237,-3.501 -7.8247,-4.872 -1.5686,-0.614 -2.853,-1.214 -2.853,-1.333 0,-0.12 0.8361,-1.115 1.8575,-2.211 l 1.8566,-1.994 3.0805,0.06 c 2.3491,0.04 7.793,0.92 7.7633,1.252 0,0.03 -0.3216,1.038 -0.7104,2.249 -0.3888,1.21 -0.8054,3.672 -0.9273,5.47 l -0.2208,3.268 z m -10.7603,-9.616 c 0.3754,-0.376 3.0623,-0.83 2.7206,-0.461 -0.1325,0.144 -0.8678,0.376 -1.6358,0.516 -0.8457,0.154 -1.2729,0.133 -1.0848,-0.06 z m -2.0197,-6.843 c 0.3763,-4.077 5.5591,-11.083 13.6833,-18.499 4.4869,-4.095 7.3217,-6.098 12.3471,-8.722 8.394,-4.383 17.2804,-6.372 24.7595,-5.538 1.8133,0.201 3.7534,0.509 4.3121,0.684 0.7402,0.233 0.4637,0.256 -1.0156,0.09 -12.3461,-1.406 -25.4439,2.562 -36.2983,10.994 -3.3051,2.567 -4.1758,3.666 -3.9291,4.957 0.097,0.511 0.3158,1.015 0.4867,1.121 0.1699,0.104 1.5782,-1.012 3.1305,-2.481 1.5522,-1.469 3.643,-3.26 4.6452,-3.98 l 1.824,-1.307 -1.7875,1.959 c -2.5295,2.77 -3.7515,4.655 -4.5454,7.006 -0.9667,2.861 -0.5031,3.138 1.9324,1.155 1.9535,-1.592 2.5352,-1.782 1.917,-0.626 -0.478,0.892 -1.1462,4.79 -0.8918,5.202 0.1181,0.191 1.1117,-0.489 2.2367,-1.53 1.8883,-1.749 3.4262,-2.625 2.2483,-1.282 -0.8016,0.914 -1.7116,2.762 -2.4604,4.996 l -0.6806,2.031 -3.2178,0.212 c -5.875,0.388 -12.0534,1.913 -16.2868,4.019 l -2.5708,1.281 z m 14.6327,-22.422 c 0,-0.57 1.4611,-2.516 2.4604,-3.279 1.3488,-1.029 5.3365,-3.067 5.5611,-2.842 0.086,0.09 -0.1555,0.335 -0.5462,0.544 -0.3907,0.209 -2.0419,1.486 -3.67,2.838 -3.2139,2.67 -3.8053,3.095 -3.8053,2.739 z"
			id="path134" />
	</g>
</svg>